<?xml version="1.0" encoding="utf-8"?>
<!-- Generator: Adobe Illustrator 19.2.1, SVG Export Plug-In . SVG Version: 6.00 Build 0)  -->
<svg version="1.1" id="Layer_1" xmlns="http://www.w3.org/2000/svg" xmlns:xlink="http://www.w3.org/1999/xlink" x="0px" y="0px"
	 viewBox="0 0 502.6 86.3" style="enable-background:new 0 0 502.6 86.3;" xml:space="preserve">
<style type="text/css">
	.st0{fill:#FFFFFF;}
	.st1{fill:#ED1C24;}
	.st2{fill:none;}
	.st3{fill:#2F7DE1;}
	.st4{fill:#231F20;}
</style>
<title>logo</title>
<path class="st0" d="M120,24.2c-0.1-4.2,1.5-8.2,4.4-11.2c5.5-5.9,14.7-6.2,20.6-0.7c0.2,0.2,0.5,0.4,0.7,0.7c2.9,3,4.5,7,4.4,11.2
	v5.7H140v-5.7c0-1.5-0.5-3-1.5-4.1c-1.6-2-4.5-2.2-6.4-0.6c-0.2,0.2-0.4,0.4-0.6,0.6c-1,1.1-1.5,2.6-1.5,4.1v42.9
	c0,1.5,0.5,2.9,1.5,4.1c1.6,2,4.5,2.2,6.4,0.6c0.2-0.2,0.4-0.4,0.6-0.6c1-1.1,1.5-2.6,1.5-4.1v-5.7h10.1v5.7
	c0.1,4.2-1.5,8.2-4.4,11.2c-5.5,5.9-14.7,6.2-20.6,0.7c-0.2-0.2-0.5-0.4-0.7-0.7c-2.9-3-4.5-7-4.4-11.2V24.2z"/>
<path class="st0" d="M154.7,24.2c-0.1-4.2,1.5-8.2,4.4-11.2c5.5-5.9,14.7-6.2,20.6-0.7c0.2,0.2,0.5,0.4,0.7,0.7
	c2.9,3,4.5,7,4.4,11.2v57.3h-10.1V71.4h-10v10.1h-10V24.2z M174.7,61.4V24.2c0-1.5-0.5-2.9-1.4-4.1c-1.6-2-4.5-2.2-6.4-0.6
	c-0.2,0.2-0.4,0.4-0.6,0.6c-1,1.1-1.5,2.6-1.4,4.1v37.3H174.7L174.7,61.4z"/>
<path class="st0" d="M204.4,35.6c4.1-0.1,7.9,1.6,10.7,4.6c2.9,3,4.5,7,4.4,11.2v15.7c0.1,4.2-1.5,8.2-4.4,11.2
	c-5.5,5.9-14.7,6.2-20.6,0.7c-0.2-0.2-0.5-0.4-0.7-0.7c-2.9-3-4.5-7-4.4-11.2v-5.7h10.1v5.7c0,1.5,0.5,2.9,1.5,4.1
	c1.6,2,4.5,2.2,6.4,0.6c0.2-0.2,0.4-0.4,0.6-0.6c1-1.1,1.5-2.6,1.5-4.1V51.4c0-1.5-0.5-2.9-1.5-4.1c-0.9-1.1-2.2-1.7-3.5-1.7
	c-4.1,0.1-7.9-1.6-10.7-4.6c-2.9-3-4.5-7-4.4-11.2v-5.7c-0.1-4.2,1.5-8.2,4.4-11.2c5.5-5.9,14.7-6.2,20.6-0.7
	c0.2,0.2,0.5,0.4,0.7,0.7c2.9,3,4.5,7,4.4,11.2v5.7h-10.1v-5.7c0-1.5-0.5-2.9-1.5-4.1c-1.6-2-4.5-2.2-6.4-0.6
	c-0.2,0.2-0.4,0.4-0.6,0.6c-1,1.1-1.5,2.6-1.5,4.1v5.7c0,1.5,0.5,2.9,1.5,4.1C201.7,34.9,203,35.6,204.4,35.6z"/>
<path class="st0" d="M224,9.8h10.1v71.7H224V9.8z"/>
<path class="st0" d="M240.1,8.3l20,27.7V9.8h10.1v71.7h-10.1V53.1l-10-13.9v42.3h-10V8.3z"/>
<path class="st0" d="M274.8,24.2c-0.1-4.2,1.5-8.2,4.4-11.2c5.5-5.9,14.7-6.2,20.6-0.7c0.2,0.2,0.5,0.4,0.7,0.7
	c2.9,3,4.5,7,4.4,11.2v42.9c0.1,4.2-1.5,8.2-4.4,11.2c-5.5,5.9-14.7,6.2-20.6,0.7c-0.2-0.2-0.5-0.4-0.7-0.7c-2.9-3-4.5-7-4.4-11.2
	V24.2z M284.9,24.2v42.9c0,1.5,0.5,2.9,1.5,4.1c1.6,2,4.5,2.2,6.4,0.6c0.2-0.2,0.4-0.4,0.6-0.6c1-1.1,1.5-2.6,1.5-4.1V24.2
	c0-1.5-0.5-2.9-1.5-4.1c-1.6-2-4.5-2.2-6.4-0.6c-0.2,0.2-0.4,0.4-0.6,0.6C285.4,21.2,284.8,22.7,284.9,24.2z"/>
<path class="st0" d="M348,9.8c3.9,0.1,7.7,1.9,10.3,4.8c2.8,3,4.3,6.9,4.3,11v30.1c0.1,4.1-1.5,8.1-4.4,11.1
	c-2.7,3-6.6,4.7-10.7,4.6h-5v10.1h-10.1V9.8H348z M342.5,19.8v41.6h5c1.4,0,2.7-0.6,3.5-1.7c1-1.1,1.5-2.5,1.5-4V25.6
	c0-1.5-0.5-2.9-1.5-4.1c-0.9-1.1-2.2-1.7-3.5-1.7L342.5,19.8L342.5,19.8z"/>
<path class="st0" d="M367.1,9.8h10.1v71.7h-10.1V9.8z"/>
<path class="st0" d="M383.3,9.8h10.1v61.7h15.1v10.1h-25.1V9.8z"/>
<path class="st0" d="M410.9,24.2c-0.1-4.2,1.5-8.2,4.4-11.2c5.5-5.9,14.7-6.2,20.6-0.7c0.2,0.2,0.5,0.4,0.7,0.7
	c2.9,3,4.5,7,4.4,11.2v42.9c0.1,4.2-1.5,8.2-4.4,11.2c-5.5,5.9-14.7,6.2-20.6,0.7c-0.2-0.2-0.5-0.4-0.7-0.7c-2.9-3-4.5-7-4.4-11.2
	V24.2z M421,24.2v42.9c0,1.5,0.5,2.9,1.5,4.1c1.6,2,4.5,2.2,6.4,0.6c0.2-0.2,0.4-0.4,0.6-0.6c1-1.1,1.5-2.6,1.5-4.1V24.2
	c0-1.5-0.5-3-1.5-4.1c-1.6-2-4.5-2.2-6.4-0.6c-0.2,0.2-0.4,0.4-0.6,0.6C421.5,21.2,421,22.7,421,24.2z"/>
<path class="st0" d="M469.3,9.8v10.1h-7.5v61.7h-10.1V19.8h-7.5V9.8H469.3L469.3,9.8z"/>
<path class="st0" d="M487.5,35.6c4,0,7.9,1.6,10.6,4.6c2.9,3,4.5,7,4.4,11.2v15.7c0.1,4.2-1.5,8.2-4.4,11.2
	c-5.5,5.9-14.7,6.2-20.6,0.7c-0.2-0.2-0.5-0.4-0.7-0.7c-2.9-3-4.5-7-4.4-11.2v-5.7h10.1v5.7c0,1.5,0.5,2.9,1.5,4.1
	c1.6,2,4.5,2.2,6.4,0.6c0.2-0.2,0.4-0.4,0.6-0.6c1-1.1,1.5-2.6,1.5-4.1V51.4c0-1.5-0.5-2.9-1.5-4.1c-0.9-1.1-2.2-1.7-3.5-1.7
	c-4.1,0.1-7.9-1.6-10.7-4.6c-2.9-3-4.5-7-4.4-11.2v-5.7c-0.1-4.2,1.5-8.2,4.4-11.2c5.5-5.9,14.7-6.2,20.6-0.7
	c0.2,0.2,0.5,0.4,0.7,0.7c2.9,3,4.5,7,4.4,11.2v5.7h-10v-5.7c0-1.5-0.5-2.9-1.5-4.1c-1.6-2-4.5-2.2-6.4-0.6
	c-0.2,0.2-0.4,0.4-0.6,0.6c-1,1.1-1.5,2.6-1.5,4.1v5.7c0,1.5,0.5,2.9,1.5,4.1C484.8,35,486.2,35.6,487.5,35.6z"/>
<path class="st1" d="M16.5,69.8c-1.7,3.6,2.1,6,5.3,3.1c1.8-1.6,1.4-4.1,1.1-5.7s-0.5-2.7-0.2-3.2c-0.5,0.3-1.7,0-3.3-0.2
	s-4.3-0.7-6,0.9C10.2,67.7,12.8,71.3,16.5,69.8"/>
<polygon class="st1" points="19.6,37.5 11.8,40.7 6.5,33.8 14.8,30.7 "/>
<path class="st0" d="M22.4,26.7c1.2-1.1,1.5-2.9,0.9-4.4c1.2,1.1,1.8,2.7,1.7,4.4c0.9-1.2,1.9-2.3,2.9-3.4c-1.5,0-3-0.5-4.2-1.3
	c1.5,0.4,3.1,0,4.3-1.1c1.6-1.5,1.7-4,0.2-5.5c-0.1-0.1-0.1-0.1-0.2-0.2c-1.7-1.5-4.4-1.5-6,0.2c0,0-0.1,0.1-0.1,0.2
	c-0.2-0.2-0.4-0.5-0.6-0.7c-1.7-1.5-4.4-1.5-6,0.2c-1.6,1.5-1.7,4-0.2,5.5c0.1,0.1,0.1,0.1,0.2,0.2c0.3,0.2,0.6,0.5,0.9,0.6
	c-1.5,1.5-1.5,4,0,5.5c0,0,0.1,0.1,0.1,0.1C18.1,28.5,20.7,28.4,22.4,26.7 M21.5,20.4L21.5,20.4L21.5,20.4L21.5,20.4"/>
<path class="st0" d="M18.7,55.9c-0.3-1.9-0.5-3.8-0.5-5.7c0-0.6,0.1-1.1,0.1-1.7c-1.2,2.1-3.2,3.6-5.6,4.1c3.9-2.6,2.3-7.7-3.5-7.2
	c-3.4,0.3-4.1,3.2-5.3,5.1C2.8,52,1.5,53.2,0,54.1c1.7,0.6,3.2,1.6,4.4,3c1.5,1.7,2.8,4.4,6.2,4.1c5.9-0.5,6.7-6,1.9-7.8
	C14.8,53.2,17.1,54.2,18.7,55.9"/>
<path class="st1" d="M100.3,64.7c-1.7-1.6-4.3-1.2-6-0.9s-2.8,0.5-3.3,0.2c0.3,0.5,0.1,1.6-0.2,3.2s-0.7,4.1,1.1,5.7
	c3.2,2.9,6.9,0.5,5.3-3.1C100.8,71.3,103.4,67.7,100.3,64.7"/>
<polygon class="st1" points="97.3,35.9 105,39.1 110.3,32.1 102.1,29.1 "/>
<path class="st0" d="M97.3,22.9c1.6-1.5,1.7-3.9,0.2-5.5c0,0-0.1-0.1-0.1-0.1c0.3-0.2,0.6-0.4,0.9-0.6c1.6-1.5,1.7-4,0.2-5.5
	c-0.1-0.1-0.1-0.1-0.2-0.2c-1.6-1.6-4.3-1.7-6-0.2c-0.2,0.2-0.4,0.4-0.6,0.7c0,0-0.1-0.1-0.1-0.2c-1.6-1.6-4.3-1.7-6-0.2
	c-1.6,1.5-1.7,4-0.2,5.5c0.1,0.1,0.1,0.1,0.2,0.2c1.1,1.1,2.7,1.5,4.3,1.1c-1.2,0.9-2.7,1.3-4.2,1.3c1,1.1,2,2.2,2.9,3.4
	c-0.1-1.6,0.6-3.2,1.7-4.4c-0.6,1.5-0.3,3.3,0.9,4.4C92.9,24.3,95.5,24.4,97.3,22.9 M92.2,16.4l-0.1,0L92.2,16.4L92.2,16.4"/>
<path class="st0" d="M94,56.2c0.3-1.9,0.5-3.8,0.5-5.7c0-0.6-0.1-1.1-0.1-1.7c1.2,2.1,3.2,3.6,5.6,4.1c-3.9-2.6-2.3-7.7,3.5-7.2
	c3.4,0.3,4.1,3.2,5.3,5.1c0.9,1.5,2.2,2.7,3.8,3.6c-1.7,0.6-3.2,1.6-4.4,2.9c-1.5,1.7-2.8,4.4-6.2,4.1c-5.9-0.5-6.7-6-1.9-7.8
	C97.8,53.5,95.5,54.4,94,56.2"/>
<path class="st0" d="M32.1,75.8c-1.9,0.6-3.3,1.1-3.3,1.1c-5.7,1.8-18.3,0.6-18.3,0.6c1.5,1.9,11.4,3.6,11.4,3.6
	c-4.4,1.7-18.3-2.4-18.3-2.4s10.5,11,23.8,6.4c5.3-1.8,10.8-2.7,16.4-2.5C39.4,81.1,35.5,78.8,32.1,75.8"/>
<path class="st0" d="M80.9,75.8c1.9,0.6,3.3,1.1,3.3,1.1c5.7,1.8,18.3,0.6,18.3,0.6c-1.6,1.9-11.4,3.6-11.4,3.6
	c4.4,1.7,18.3-2.4,18.3-2.4s-10.6,11-23.8,6.4c-5.3-1.8-10.8-2.7-16.4-2.5C73.5,81.1,77.5,78.8,80.9,75.8"/>
<path class="st2" d="M56.3,76.8c12.8,0,23.6-8.2,26.9-19.5H29.4C32.7,68.5,43.5,76.8,56.3,76.8z"/>
<path class="st3" d="M56.8,22c-16.5,0-29.9,12.8-29.9,28.6s13.4,28.5,29.9,28.5s29.9-12.8,29.9-28.6S73.3,22,56.8,22"/>
<path class="st4" d="M23.4,50.7c0,17.6,15,31.9,33.4,31.9s33.4-14.3,33.4-31.9s-15-31.9-33.4-31.9S23.4,33.1,23.4,50.7 M25.6,50.7
	c0-16.5,14-29.8,31.2-29.8S88,34.3,88,50.7S74,80.5,56.8,80.5S25.6,67.2,25.6,50.7"/>
<path class="st0" d="M47.5,5.6c-0.8,0.5-8.7,15.6-8.8,16s0.8,8.5,0.8,8.5L39,36.4l-5.1,3.3c-0.2,1.5-0.3,3-0.4,4.5
	c0.1,0.7,0.5,11.6,0.7,12.1s1.8,3.9,1.8,3.9s2.2,6.8,2.2,7.9c0.1,0.9,0.4,1.9,0.9,2.7l-0.6,3c6.7,3.8,6.3,3.6,7.4,4
	c0.2,0.1,0.5-3.4,1-3.4c0.6,0-1.2-6.8-0.2-6.9c0.3,0,0.2-11,0.9-9.2c0.5,1.2,5.6,1.9,5.3,5.7c-0.3,5-3.2,12-2.8,11.9
	c6.6-0.5,17.1-0.4,17.1-0.4l3.4-2.1l2.3-4.9l1.3-9.1l4.8-7.1l-4.7-5.1l-2-2.2l4.7,1.6l3.2-0.6l1.4-1.1l9.7-2.7l4.9-4.3l-0.4-3.4
	l-5.4-6.4l-12.1-6.4l-5.9-5l-3.8-2l-6.9-2.5l-0.6,4.2l4.6,2l3.3,3.1l4.8,2.6l2,0.3l5.2,4.7l3.6,6.8L82.3,36L80,34.2l-0.9-0.1h-4.3
	c0,0-1.2-0.2-1.2,0.2c-0.3,0.4-0.6,0.8-1.1,1.1l-5.9-1.5L62,34l0.8-6.2l1.3-6l-4.5-5.5l2.8-6l-2.7-5.5l-7.6-4.1L47.5,5.6z"/>
<path class="st2" d="M58.7,22.1h-0.1H58.7L58.7,22.1z"/>
<path class="st2" d="M51.6,20.3c-0.1,0-0.3,0.1-0.3,0.2c0,0.1,0,0.3,0.1,0.3c0,0,0,0,0,0c0.1,0,0.3-0.1,0.3-0.2
	C51.8,20.5,51.7,20.4,51.6,20.3C51.6,20.3,51.6,20.3,51.6,20.3z"/>
<path class="st2" d="M59,22.4c0.3,0.1,0.6,0,0.8-0.3h-0.3C59.4,22.3,59.2,22.4,59,22.4z"/>
<path class="st2" d="M53.3,22c0.2,0,0.4-0.2,0.5-0.5c0-0.6-0.4-1.1-1-1.2c0.1,0.4-0.1,0.9-0.6,1c-0.1,0-0.3,0-0.4,0
	c0.3,0.2,0.8,0.2,1.1-0.1c0.2-0.2,0.3-0.4,0.4-0.6c0.1,0.5-0.2,1-0.6,1.1c-0.5-0.2-1-0.3-1.4-0.3c-0.4-0.3-0.5-0.9-0.2-1.3
	c-0.2,0-0.4,0.1-0.6,0.2c-0.2,0.4-0.1,0.8,0.2,1.1c-0.5-0.1-0.9-0.5-0.9-1c-0.6,0-1.2-0.5-1.2-1.2c0.5,0.5,1.4,0.4,2.5,0.3
	c1.7-0.2,3.4,0.3,3.3,2.3c0,0,0,0.1,0,0.2c0.9-0.1,1.8-0.1,2.7-0.1h0.4c0.7-1.5,2.2-1.5,3.4-0.9c0.2,0.1,0.4,0.2,0.6,0.3
	c0.3-0.6,0.4-1.3,0.2-1.9c-1.3-0.3-2.7,0.9-3.9,1.3c-0.3,0.1-0.6,0.3-0.4-0.3c0-0.3,0.1-0.6,0.3-0.8c1-0.9,2.3-1.2,3.6-0.9
	c-1.4-1.7-5.2,1.6-9.5-4.4c-0.4-1.1-1.1-2-1.9-2.8c0.7,0.8,1.2,1.8,1.5,2.8c-0.3,2.4-4.1,3.8-3.9,5.9l-0.3,2.1
	c-0.7,0.1-0.6-0.1-0.8-0.9c-0.5-1.7-1.9-0.8-2.8-1.6c0.1,2.3,0.5,4.1,2,4.2c0,0,0,0.1,0,0.1c2.7-1.1,5.6-1.8,8.5-2.1L53.3,22z
	 M55,19.2c0.1,0.3,0.1,0.5,0,0.8c-0.1,0.7-0.2,0.4-0.6,0.2c-1.6-0.9-3.1-3.5-5.9-1.9C49.4,17.1,52.8,16.5,55,19.2L55,19.2z"/>
<path class="st2" d="M45.9,27.6c1.2,1.5,2.5,2.9,4,4.1c2.3,2.2,6,3.8,7.4,0c1.3-3.4,5.1-4.9,3.5-9l0,0c-0.2,0.1-0.4,0.2-0.6,0.2
	c0.2-0.2,0.4-0.4,0.5-0.7l-0.5-0.1c-0.1,0.3-0.3,0.5-0.5,0.7c-0.5-0.2-1-0.2-1.4-0.2c-0.2-0.1-0.4-0.4-0.3-0.7h-0.2c0,0,0,0.1,0,0.1
	c-0.1,0.2,0,0.5,0.2,0.6c-0.2,0-0.5,0-0.7,0c-0.1,0-0.1-0.1-0.1-0.3c0-0.1,0.1-0.3,0.2-0.4h-0.5c-0.9,0-1.8,0-2.7,0.1
	c0,0-0.1,0.1-0.2,0.1c-0.1,0-0.2,0-0.3,0c-2.9,0.3-5.8,1-8.5,2.1C45.2,25.4,45.4,26.6,45.9,27.6z M54.2,25.3
	c-0.3,0.2-0.3,0.6-0.2,0.9c0.3-0.1,0.6-0.2,0.9-0.2c0.6,0.1,0.9,0.9,1.9,0.3c0.1-0.9-0.7-1-0.1-2.9c-0.1,0.7-0.1,1.5,0.2,2.2
	c0.3,0.4,0.3,0.8,0.1,1.2c-0.2,0.1-0.4,0.2-0.7,0.2c0.2-0.1,0.2-0.2,0.2-0.4c-0.2,0.3-0.6,0.5-1,0.5c-0.4-0.2-0.8-0.4-1.2-0.7
	c-0.1,0,0,0.3,0,0.3c-0.2,0-0.4,0-0.7-0.1l0,0c-0.3-0.2-0.4-0.7-0.2-1C53.8,25.4,53.9,25.3,54.2,25.3z M50.2,27.2
	c0-0.2,0.2-0.3,0.4-0.4c0.1,0.4,0.5,0.7,1,0.6c0,0,0,0,0,0l0,0c0.9,0,1.8,0,2.7,0.1c0.5,0,0.9,0.2,1.3,0.5c0.3-0.2,0.7-0.2,1.1-0.2
	c0.6,0,1.6,0.6,1.9-0.2c0.2,0.2,0.1,0.6-0.1,0.8c-0.1,0.1-0.3,0.1-0.4,0.1c-0.5,0.3-0.5,1.3-0.8,1.8c-1.2,1.9-3.6,1.4-4.8-0.2
	c-0.4-0.6-0.7-2-1.1-2.2c-0.2,0-0.5,0-0.7-0.1C50.3,27.7,50.1,27.5,50.2,27.2C50.1,27.2,50.1,27.2,50.2,27.2z"/>
<path class="st2" d="M39,31.4c-0.6,0.9-2.5,2-3.9,0.9c2-1,2.3-2,2.3-3.5c-1.6,1.3-3.1,2.8-4.4,4.4c2,1.2,4.6,0.5,5.8-1.6
	C38.9,31.6,39,31.5,39,31.4z"/>
<path class="st2" d="M66.7,28.6c-0.2,1.2-0.5,2.1,0.3,3.1c-0.9-0.1-1.6-0.5-2.1-1.3c0.5,3.2,6,3,5-0.8c2.1,1.1,2.2,4,1.8,5.2
	c0.1,0,0.9-0.1,1-0.1c0.2-0.7,0.7-1.2,1.3-1.3c0.7,0,1.4,0,2.2,0.1c1.9,0,4.7-0.8,5.3,1.7h0.6C78.1,29.2,72,24.9,65,23.1
	c0,0,0,0.1,0,0.1C65,24.2,67.5,24.6,66.7,28.6z"/>
<path class="st2" d="M56.4,29.4c0.2-0.2,0.3-0.4,0.3-0.6h-0.2c-0.2,0-0.5,0.1-0.7,0.1C55.6,29,55.5,29,55.3,29l0,0
	c-0.2,0-0.5-0.1-0.7-0.2c-0.4-0.2-0.8-0.3-1.3-0.4c-0.4-0.1-0.9-0.2-1.3-0.3c0.2,0.4,0.5,0.8,0.8,1C53.9,30.1,55.4,30.7,56.4,29.4z"
	/>
<path class="st2" d="M80.9,36.6c-0.6,0-1.2,0.2-1.7,0.5c-0.2,0.4-0.2,0.9-0.2,1.4c0.1,2.3,1.3,4,2,5.5c1.6,0,3.2-0.2,4.8-0.6
	c-0.6-2.4-1.6-4.6-2.8-6.7C82.4,36.6,81.6,36.6,80.9,36.6z"/>
<path class="st2" d="M58.8,21.8c0-0.1,0-0.2-0.1-0.3c-0.1,0-0.2,0-0.3,0.1c0,0,0,0.1,0,0.1c0,0.1,0,0.2,0.1,0.2h0.1
	C58.7,21.9,58.8,21.9,58.8,21.8z"/>
<path class="st2" d="M58,21.6c-0.1,0.1-0.2,0.3-0.3,0.4H58C58,21.8,58,21.7,58,21.6z"/>
<path class="st2" d="M82.2,35.3c0.6,0,1.3,0.1,1.9,0.3c-2.8-4.1-8.5-10.5-10-10.3c-1.3,0.2-2.7-0.2-5-3.3c-1.1-0.9-2.2-1.8-3.4-2.6
	c0.3,1.3,0.1,2.7-0.7,3.8C72,24.9,78.1,29.2,82.2,35.3z"/>
<path class="st2" d="M59.9,21.4l-0.3-0.1c0.1,0.3,0.1,0.5-0.1,0.8h0.3C59.9,21.9,60,21.6,59.9,21.4z"/>
<polygon class="st2" points="61.1,18.7 61.1,18.7 61.1,18.7 "/>
<path class="st2" d="M37.3,65.7c-0.4-1.3-0.7-2.8-1.1-4.6h-0.3c-1.3-0.2-2.2-1.8-2.5-2.9c-0.1-0.5-0.2-0.9-0.2-1.4
	c-0.3-0.6-0.5-1.3-0.4-2c0.1-0.4,0.2-0.7,0.5-1c-0.5-2.3-0.8-4.7-0.9-7c-0.1-2.1,0.2-4.1,1-6.1c0.7-1.2,1.7-2.1,3-2.6
	c-2-0.1-4-0.5-4.9-2.4c-2.9,4.5-4.4,9.7-4.4,15c0.1,8.7,4.3,16.9,11.3,22.1c0.1-1,0.3-2,0.4-3C38.2,68.3,37.7,67.1,37.3,65.7z"/>
<path class="st2" d="M90.4,41.8c1.1-0.6,2.2-1.3,3.2-2.1c1.3-1.1,2.4-2.4,1.6-3.4c-1.2-1.7-2.5-3.4-3.9-5c-1.7-1.9-3.8-3.4-6.1-4.5
	l0,0l0,0c-4.2-2.5-7.6-4.7-10-6.3c-1.6-1-3.1-2.3-4.4-3.7l-0.8-0.3c-1-0.3-1.8-0.9-3-1.3c-1.4-0.3-2.8-0.7-4.2-1.1l-0.5-0.3
	c-0.6,0.1,0,0.9,0.2,1.1c-0.6,0.9,1,1.4,1.9,2c-0.2,0.2-0.3,0.5,0.5,0.8c1.7,0.4,3.3,1.2,4.6,2.4c2.2,3.1,3.6,3.5,5,3.3
	c2-0.2,11,10.2,11.6,13.4l0,0c0.1,0.2,0.3,0.4,0.6,0.5c1.5,1,2.1,0.5,1.9,1.8c-0.9,0-1.9-0.3-2.7-0.7c-0.5-0.3-0.9-0.8-1.2-1.4
	c-0.5-0.1-0.9-0.2-1.4-0.3c1.2,2.1,2.2,4.4,2.8,6.7C87.5,43.1,89,42.6,90.4,41.8z"/>
<path class="st2" d="M60.8,21.9c-0.1-0.2-0.3-0.3-0.5-0.4c0.1,0.2,0.1,0.4,0,0.6l0.5,0.1C60.7,22.1,60.8,22,60.8,21.9z"/>
<path class="st2" d="M51.9,67.1c0.1-1.5-0.2-3-0.9-4.3c-0.7-1.2-1.8-2.1-3-2.8c0.1,1.5,0,3-0.4,4.4c-0.6,2.1-0.7,4.4-0.3,6.5
	c0.5,2.2,0.7,4.5,0.4,6.8h0.1c1-2.9,2.8-5.6,2.8-6.3C49.7,70.4,51,68.1,51.9,67.1z"/>
<path class="st2" d="M53.4,6.1c1.4,0.9,3,1.6,4.7,1.9l0,0c0.7-0.7,1.1-1.7,1.1-2.7c-0.6-0.7-1.3-1.3-2.2-1.7
	c-1.4-0.7-2.8-1.1-4.3-1.4c-0.8,0.2-1.6,0.6-2.3,1.2C51.2,4.5,52.2,5.4,53.4,6.1z"/>
<path class="st2" d="M75.2,49.2c-2.2-1.8-10.7-6.3-2.7-7.9l0.3,0.6c-0.1-0.3-0.1-0.7-0.2-1c-0.2-1.7,0-3.4,0.5-5
	c-0.7,0.1-1.3,0.2-2,0.1c-2.6,3.1-6.9,4.2-10.7,2.9l0.4,0.3c0.7,0.5,1.5,0.9,2.4,1l-0.1,1c-0.7-0.1-1.3-0.3-1.9-0.6l-0.1,0.2
	c-0.1,0.3-0.3,0.6-0.5,0.9c0.1,0.4,0.1,0.7,0,1.1l1,0.3c6.3,1.9,9.7,4.9,6.9,11.1c1.1,4.7,1.1,9.5,0,14.2c-0.6,1.6-1,3.3-1.2,5
	c0.7,0,1.5-0.2,2.2-0.4c0.4-1.9,2.1-1.6,2.6-3.5c0.8-3,0.8-8,0.9-10v-0.2c-1.3-0.4-2.4-1.4-3-2.7c-0.2-0.2-0.5-0.3-0.9-0.3
	c0.3-0.3,0.8-0.4,1.2-0.3c0.4,0.1,1.1,2.5,3.4,1.7c2.8-1,3.4-3.5,3.4-6.1C76.7,50.7,76,49.8,75.2,49.2z"/>
<path class="st2" d="M60.3,7.1c-0.4,0.9-1.1,1.7-1.9,2.2c-2.6,1.6-6.8,1.6-9.4,1.1c1.3,1.2,5,4.8,8.5,4.8c1.8-0.8,3.3-2,4.3-3.7
	c-0.3-0.7-0.6-1.4-0.8-2C60.6,8.7,60.4,7.9,60.3,7.1z M58.3,14.6l-1.4-1l-1.5,1L56,13l-1.4-1l1.8,0l0.6-1.6l0.5,1.7h1.8l-1.5,1
	L58.3,14.6z"/>
<path class="st2" d="M55.7,9.3C56,9.3,56.3,9.2,56.6,9c-1.4-0.4-2.8-1-4-1.8c-1.2-0.8-2.2-1.7-3.1-2.8c-0.9,1.2-1.6,2.5-2.2,3.9
	c0.6,1,2,1.4,3.5,1.5C52.5,9.9,54.1,9.8,55.7,9.3z"/>
<path class="st2" d="M39.2,57.1c0.6-1.1,4.3-1.3,5.4-1.1c0.8,0.1,1.5,0.3,2.2,0.6c-0.1-0.4-0.2-0.9-0.3-1.3c-0.1-0.5-0.1-0.9,0-1.4
	c0-0.2-0.1-0.5-0.3-0.7c-0.4-0.2-0.8-0.3-1.3-0.2l0,0c-1.9-0.1-3.8,0.1-5.6,0.4c-1.1,0.2-2.3,0.4-3.3,0.8c-0.2,0.1-0.3,0.3-0.3,0.5
	l0,0c0,0.3,0,0.6,0.1,0.9c1-0.4,2.2-0.8,2.2,0.2c-0.7,0.1-1.4,0.3-2,0.5c0,0.5,0.1,0.9,0.1,1.4c0.3,1.1,0.6,1.5,1.3,1.3
	c1.5-0.2,2-1,4.2-1.3c1.7-0.2,3.4-0.1,5,0.4c0.1,0,0.2-0.1,0.3-0.2c0.1-0.1,0.2-0.3,0.1-0.5c-0.8-0.4-1.6-0.7-2.5-0.8
	C42.7,56.4,40.9,56.5,39.2,57.1z"/>
<path class="st2" d="M67.2,52.3L67.2,52.3c-0.4-2.5-12.5-6-8-8.2c0.4-0.1,0.9-0.1,1.3,0.1c-0.1,0-1.5-1.3-2.6,0
	c-0.3,0.4-1.2-0.3-1.3-0.5c-0.4-0.4-0.6-0.9-0.8-1.5c-0.4,0.3,0.2,1.5,0.1,1.6h-0.4c-0.5,0-1,0-1.7,0c0,1.3-0.1,2.6-0.4,3.9
	c-0.7-0.5-1.4-1.2-2.1-1.7l0,0c-0.4-0.3-0.8-0.5-1.3-0.7c-2.7-1.1-5.3-2.5-7.7-4.2c-0.8-0.5-1.4-1.2-1.9-2c-1.7,0.1-4.3,1.1-5,2.4
	c-1.3,2.7-0.8,8.4,1.5,10.6c3-1.1,6.3-1.3,9.4-0.8c0.6-1.6-0.1-4-0.3-4.8c0-0.3,1.7-0.5,1.7-0.1c0.1,1,0,1.9-0.1,2.9
	c0,0.3-0.1,0.7-0.1,1c0.4-0.8,0.9-1.6,1.2-2.1c0.4,0.1,0.6,0.4,0.8,0.7c-0.5,0.8-0.7,1.7-0.6,2.7c0,0.3,0,0.6,0.1,0.9
	c0.7,3.7,5.4,7.8,11.8,6.3c-0.1,0.4-0.2,0.9-0.4,1.3c-0.2,0.7-0.6,1.4-1,2c-2,0.5-4.2,0.5-6.3,0.1c1,1.9,3.2,3.8,2.9,5.8
	c-2.1,0-3.3,1.1-3.4,3.1c7.2,0.6,10.5,2.5,13.8,2.5c0.2-1.8,0.6-3.5,1.2-5.2C69,63,68.8,57.4,67.2,52.3z M62.8,60.7l-0.2,0.1
	l-0.3,0.5c-0.7,1.1-1.7,1.9-2.8,2.5l-0.4-0.3c0.8-0.9,1.5-1.8,2-2.8c0.5-0.7,0.8-1.5,1-2.3c2.6-1,3.6-2.7,4.6-5.1l0.6,2.8
	C66.4,58.5,64.9,59.5,62.8,60.7L62.8,60.7z"/>
<path class="st2" d="M45.6,71.4L45.6,71.4L45.6,71.4c-0.4-2.4-0.3-4.9,0.3-7.3c0.4-1.4,0.5-2.8,0.3-4.3H46v-0.2
	c-2.4-0.8-4.9-0.6-7.2,0.5c-0.4,1.7-0.3,3.4,0.2,5c0.4,1.5,0.8,2.8,1.4,4.3l0.1,0.2v0.2c-0.3,1.4-0.4,2.8-0.6,4.1
	c1.9,1.3,3.9,2.3,6.1,3.1C46.1,75.2,46,73.2,45.6,71.4z"/>
<path class="st2" d="M81.5,46c-0.1,1-1.9,1.4-2.8,1.4c-0.6,0-1.4,0-2.4-0.1l0.3,0.2c1.3,1,2.2,2.3,2.7,3.8v0.1v0.1
	c0.1,3.3-0.9,6.5-4.2,8c-0.1,3.4-0.5,6.7-1,10c-0.4,2.3-2.7,2.4-2.8,4.2c0,0.6,0,1.2,0,1.7c9.3-4.8,15.2-14.4,15.3-24.9
	c0-1.9-0.2-3.9-0.6-5.8c-1.5,0.3-3.1,0.5-4.7,0.6C81.5,45.5,81.5,45.8,81.5,46z"/>
<path class="st2" d="M77.3,38.5c0-0.6,0-1.2,0.2-1.7c0.2-1,1.2-1.7,2.3-1.5c0,0,0.1,0,0.1,0c0.1-0.1,0.2-0.3,0.3-0.4
	c-1.5-1.1-3,0.3-3.4,1.7c-0.7,1.9-0.2,2.5-0.9,2.8c-0.2-1-0.1-2,0.2-3c0.2-0.6,0.6-1.2,1-1.7c-0.9,0-1.8,0-2.5,0.1
	c-0.9,1.9-1.2,3.9-1,6c0.1,1.8,0.9,3.5,2.2,4.8l-0.1,0.1c1.1,0.1,2.8,0.1,3,0.1c0.6,0,1,0,0.6-0.7C78.1,43.1,77.4,40.8,77.3,38.5z"
	/>
<path class="st2" d="M71.2,43.9c0.4-0.1,0.8-0.2,1.2-0.2c0.3,0,0.6,0,0.9,0.1c-0.2-0.6-0.4-1.1-0.6-1.7
	C71.6,42.6,71.2,42.8,71.2,43.9z"/>
<path class="st2" d="M50.5,44.1c0.5,0.2,1.1,0.5,1.5,0.9l0,0l0.5,0.4c0.1-0.8,0.1-1.7,0-2.5c-0.1-1-0.2-2-0.5-3
	c-1.2-0.3-2.4-0.7-3.6-1.2c-1.6-0.7-3.2-1.6-4.6-2.7c0.7,0.2,1.4-0.1,1.7-0.7c0,0.4-0.1,0.8-0.2,1.2c1.1,0.6,2.2,1.2,3.3,1.6
	c1.3,0.5,2.6,0.9,4,1.2c0.8,0.5,1.5,1.2,2.2,1.9l0.8-0.1c-0.1-0.4,1.4-1.3,2.9-1.1c0.5,0.1,1,0.4,1.3,0.8c-0.1-0.6-0.6-1-1.2-1
	c-0.5-0.4-0.9-1-1.1-1.6c0-0.2,0.1-0.4,0.3-0.6c-0.8-0.9-1.4-1.8-2-2.8c0,0-2.6,0.5-3.9-0.1c-2.2-0.8-4.2-2.2-5.8-4
	c-0.6-0.7-0.7-0.4-0.7,1.6v2.2c0,0.7,0,0.8-0.6,0.9c-0.6,0.1-1.2,0-1.8-0.2c-0.2,0-0.1,0.1-0.3,0.3c-0.4,0.4,0.7,1.4,0.3,2.3
	c-1.7-0.8-1.8,0.5-1.9,0.7c0.6,0.6,1.2,1.1,1.9,1.5C45.5,41.7,47.9,43,50.5,44.1z"/>
<path d="M96.4,35.5c-2.2-3-4.1-5.6-6.8-7.7c-1.2-0.9-2.4-1.7-3.8-2.3c-4.2-2.5-7.5-4.6-9.9-6.3c-1.6-1-3-2.2-4.3-3.5l-0.1-0.2
	l-0.2-0.1l-1.1-0.3c-1.7-0.5-4.6-1.2-6.2-1.9c-0.3-0.6-0.3-0.8-0.6-1.3l0.2-0.3l0.3-0.5l-0.3-0.5c-0.1-0.2-0.2-0.5-0.4-0.9
	s-0.4-1-0.6-1.4c-0.3-0.9-0.6-1.8-1.1-3.2c-3-3.2-3.7-4.1-8.6-5.1L52.7,0l-0.3,0.1c-1.6,0.4-3.1,1.2-4.3,2.5
	c-1.3,1.6-2.3,3.3-2.9,5.2c-0.1,0.5,0,0.9,0.4,1.2c-2.1,0.6-3.9,2.1-4.9,4.1c-0.7,1.8-0.8,3.7-0.3,5.5c-0.7,0-1.4,0.2-2,0.7
	c-2.1,1.3-1.2,5.1-1,8.3c0,0.5,0,0.9,0,1.3c2.4-1.9,5-3.5,7.8-4.6c0,0,0-0.1,0-0.1c-1.5,0-1.9-1.9-2-4.2c0.9,0.8,2.3-0.1,2.8,1.6
	c0.2,0.8,0.2,1,0.8,0.9l0.3-2.1c-0.2-2.1,3.6-3.5,3.9-5.9c-0.3-1-0.8-1.9-1.5-2.8c0.9,0.8,1.5,1.7,1.9,2.8c4.3,5.9,8,2.7,9.5,4.4
	l0,0c-1.3-0.3-2.6,0-3.6,0.9c-0.2,0.2-0.3,0.5-0.3,0.8c-0.2,0.7,0.1,0.4,0.4,0.3c1.1-0.3,2.6-1.5,3.9-1.3c0.2,0.6,0.1,1.3-0.2,1.9
	c-0.2-0.1-0.4-0.2-0.6-0.3c-1.2-0.6-2.7-0.6-3.4,0.9h0.4c0.1-0.2,0.1-0.3,0.3-0.4c0,0.1,0,0.3,0,0.4h0.6c-0.1-0.1-0.1-0.1-0.1-0.2
	c0-0.1,0-0.2,0.1-0.3c0.1,0,0.2,0,0.3,0.1c0,0,0,0.1,0,0.1c0,0.1,0,0.2-0.1,0.3l0.9,0.1c0.1-0.2,0.1-0.5,0.1-0.8l0.3,0.1
	c0,0.2,0,0.5-0.2,0.7l0.5,0c0.1-0.2,0.1-0.4,0-0.6c0.2,0.1,0.4,0.2,0.5,0.4c0,0.1,0,0.2,0,0.3c1.4,0.2,2.9,0.5,4.3,0.8
	c0.7-1.1,1-2.5,0.7-3.8c1.2,0.8,2.3,1.7,3.4,2.6c2.2,3.1,3.6,3.5,5,3.3c1.5-0.2,7.3,6.2,10,10.3c-0.6-0.1-1.3-0.2-1.9-0.3
	c0.3,0.5,0.6,1,0.9,1.4c0.5,0.1,0.9,0.2,1.4,0.3c0.2,0.6,0.7,1,1.2,1.4c0.8,0.4,1.8,0.7,2.7,0.7c0.2-1.3-0.4-0.8-1.9-1.8
	c-0.2-0.1-0.4-0.3-0.6-0.5l0,0c-0.6-3.2-9.6-13.6-11.6-13.4c-1.3,0.2-2.7-0.2-5-3.3c-1.3-1.2-2.9-2-4.6-2.4
	c-0.8-0.2-0.6-0.6-0.5-0.8c-0.9-0.6-2.5-1-1.9-2c-0.3-0.2-0.8-1-0.2-1.1l0.5,0.3c1.4,0.5,2.8,0.8,4.2,1.1c1.3,0.4,2,1,3,1.3l0.8,0.3
	c1.3,1.4,2.8,2.6,4.4,3.7c2.4,1.7,5.7,3.8,10,6.3l0,0l0,0c2.3,1.1,4.4,2.6,6.1,4.5c1.4,1.6,2.7,3.3,3.9,5c0.7,1-0.3,2.3-1.6,3.4
	c-1,0.8-2.1,1.5-3.2,2.1c-1.4,0.7-3,1.3-4.6,1.6c0.1,0.4,0.2,0.9,0.3,1.3c1.7-0.4,3.4-0.9,4.9-1.8c0.8-0.4,1.8-1,2.7-1.6
	C96.2,39.8,98,37.8,96.4,35.5z M52.7,2.3C54.2,2.5,55.7,3,57,3.7c0.8,0.4,1.6,1,2.1,1.7c0,1-0.4,2-1.1,2.7l0,0c-1.7-0.4-3.3-1-4.7-2
	c-1.1-0.7-2.1-1.6-3-2.7C51.1,2.9,51.9,2.5,52.7,2.3z M47.4,8.4c0.5-1.4,1.2-2.7,2.2-3.9c0.9,1.1,1.9,2,3.1,2.8
	c1.2,0.8,2.6,1.4,4,1.8c-0.3,0.1-0.6,0.2-0.9,0.3c-1.6,0.4-3.2,0.6-4.8,0.5C49.3,9.7,48,9.3,47.4,8.4L47.4,8.4z M57.5,15.2
	c-3.5,0.1-7.2-3.5-8.5-4.8c2.7,0.5,6.8,0.5,9.4-1.1c0.9-0.5,1.5-1.3,1.9-2.2c0.1,0.8,0.3,1.6,0.6,2.4c0.3,0.7,0.6,1.4,0.8,2
	C60.7,13.2,59.2,14.4,57.5,15.2z"/>
<path d="M81,44c-0.7-1.5-1.9-3.2-2-5.5c0-0.5,0-0.9,0.2-1.4c0.5-0.3,1.1-0.4,1.7-0.5c0.7-0.1,1.4,0,2.1,0.1c-0.3-0.5-0.6-1-0.9-1.4
	h-0.6c-0.6-2.5-3.4-1.7-5.3-1.7c-0.7-0.1-1.4-0.1-2.2-0.1c-0.7,0.2-1.2,0.7-1.3,1.3c-0.1,0-0.9,0.1-1,0.1c0.4-1.3,0.4-4.2-1.8-5.2
	c1,3.8-4.5,4-5,0.8c0.5,0.7,1.3,1.2,2.1,1.3c-0.9-1-0.6-1.9-0.3-3.1c0.8-4-1.8-4.4-1.8-5.4c0,0,0-0.1,0-0.1
	c-1.4-0.4-2.8-0.7-4.3-0.8c-0.1,0.3-0.3,0.5-0.5,0.7c0.2,0,0.5,0,0.6-0.2l0,0c1.6,4-2.2,5.5-3.5,9c-1.4,3.7-5.1,2.2-7.4,0
	c-1.5-1.2-2.8-2.6-4-4.1c-0.6-1.1-0.8-2.3-0.6-3.4c-2.8,1.1-5.5,2.7-7.8,4.6c0,1.5-0.4,2.5-2.3,3.5c1.5,1.1,3.3,0,3.9-0.9
	c-1,2.1-3.6,3-5.7,2c-0.1,0-0.2-0.1-0.3-0.1c-0.6,0.8-1.2,1.5-1.7,2.3c0.9,1.8,2.9,2.3,4.9,2.4c-1.3,0.5-2.3,1.4-3,2.6
	c-0.8,1.9-1.1,4-1,6.1c0.2,2.3,0.5,4.7,0.9,7c-0.2,0.3-0.4,0.7-0.5,1c-0.1,0.7,0.1,1.4,0.4,2c0,0.5,0.1,0.9,0.2,1.4
	c0.3,1.1,1.1,2.7,2.5,2.9h0.3c0.4,1.8,0.8,3.3,1.1,4.6s0.8,2.7,1.3,4.2c-0.2,1-0.3,2-0.4,3c0.5,0.4,1.1,0.8,1.6,1.2
	c0.2-1.3,0.3-2.7,0.6-4.1v-0.2l-0.1-0.2c-0.5-1.5-1-2.8-1.4-4.3c-0.5-1.6-0.5-3.3-0.2-5c2.2-1.1,4.8-1.3,7.2-0.5v0.2h0.2
	c0.2,1.4,0.1,2.8-0.3,4.2c-0.6,2.4-0.7,4.8-0.3,7.2l0,0v0c0.5,1.9,0.6,3.8,0.3,5.7c0.6,0.2,1.1,0.4,1.7,0.6c0.3-2.3,0.2-4.5-0.4-6.8
	c-0.4-2.2-0.3-4.4,0.3-6.5c0.4-1.4,0.5-2.9,0.4-4.4c1.2,0.6,2.3,1.6,3,2.8c0.7,1.3,1,2.8,0.9,4.3c-0.9,1.1-2.2,3.4-1.3,4.4
	c0,0.7-1.8,3.4-2.8,6.3c3,0.9,6,1.4,9.2,1.4c5.1,0,10.1-1.2,14.6-3.6c0-0.6,0-1.2,0-1.7c0-1.8,2.3-1.9,2.8-4.2c0.5-3.3,0.9-6.6,1-10
	c3.3-1.5,4.2-4.7,4.2-8v-0.1v-0.1c-0.5-1.5-1.4-2.9-2.7-3.8l-0.3-0.2c1,0.1,1.8,0.1,2.4,0.1c0.9,0,2.6-0.4,2.8-1.4
	c0-0.2,0-0.4,0-0.7c1.6-0.1,3.1-0.3,4.7-0.6c-0.1-0.4-0.2-0.9-0.3-1.3C84.3,43.7,82.7,43.9,81,44z M43.2,37.8
	c0.4-0.9-0.7-1.9-0.3-2.3c0.2-0.2,0.2-0.3,0.3-0.3c0.6,0.2,1.2,0.2,1.8,0.2c0.7-0.1,0.6-0.2,0.6-0.9v-2.2c0-2,0.1-2.3,0.7-1.6
	c1.6,1.8,3.6,3.2,5.8,4c1.3,0.6,3.9,0.1,3.9,0.1c0.6,1,1.2,2,2,2.8c-0.1,0.2-0.2,0.4-0.3,0.6c0.2,0.6,0.5,1.2,1.1,1.6
	c0.6,0,1.1,0.4,1.2,1c-0.4-0.4-0.8-0.7-1.3-0.8c-1.4-0.1-2.9,0.8-2.9,1.1L55,41.1c-0.7-0.7-1.4-1.4-2.2-1.9c-1.4-0.3-2.7-0.7-4-1.2
	c-1.1-0.5-2.2-1-3.3-1.6c0.1-0.4,0.1-0.8,0.2-1.2c-0.3,0.6-1,0.9-1.7,0.7c1.4,1.1,2.9,2,4.6,2.7c1.2,0.5,2.4,0.9,3.6,1.2
	c0.3,1,0.5,2,0.5,3c0.1,0.8,0.1,1.7,0,2.5l-0.5-0.4l0,0c-0.5-0.3-1-0.6-1.5-0.9c-2.6-1-5.1-2.4-7.4-4c-0.6-0.5-1.3-1-1.8-1.5
	C41.4,38.3,41.5,37.1,43.2,37.8z M46.8,57.9c-0.1,0.1-0.2,0.1-0.3,0.2c-1.6-0.5-3.3-0.7-5-0.4c-2.2,0.3-2.7,1.1-4.2,1.3
	c-0.7,0.1-1-0.2-1.3-1.3c-0.1-0.5-0.1-0.9-0.1-1.4c0.6-0.3,1.3-0.4,2-0.5c-0.1-1-1.2-0.6-2.2-0.2c-0.1-0.3-0.2-0.6-0.1-0.9l0,0
	c0.1-0.2,0.2-0.4,0.3-0.5c1.1-0.4,2.2-0.6,3.3-0.8c1.9-0.3,3.7-0.5,5.6-0.4l0,0c0.4-0.1,0.9,0,1.3,0.2c0.1,0.2,0.2,0.4,0.3,0.7
	c-0.1,0.5-0.1,0.9,0,1.4c0.1,0.5,0.2,0.9,0.3,1.3c-0.7-0.3-1.4-0.5-2.2-0.6c-1.2-0.2-4.8,0.1-5.4,1.1c1.7-0.5,3.5-0.7,5.3-0.5
	c0.9,0.1,1.7,0.4,2.5,0.8C47,57.6,46.9,57.7,46.8,57.9L46.8,57.9z M52.7,71.1c0.1-2,1.3-3.1,3.4-3.1c0.2-2.1-2-3.9-2.9-5.8
	c2.1,0.4,4.2,0.4,6.3-0.1c0.4-0.6,0.8-1.3,1-2c0.2-0.4,0.3-0.9,0.4-1.3c-6.4,1.5-11.1-2.6-11.8-6.3c-0.1-0.3-0.1-0.6-0.1-0.9
	c-0.1-0.9,0.1-1.9,0.6-2.7c-0.2-0.3-0.4-0.6-0.8-0.7c-0.3,0.5-0.8,1.3-1.2,2.1c0-0.4,0.1-0.7,0.1-1c0.1-1,0.2-1.9,0.1-2.9
	c0-0.4-1.7-0.2-1.7,0.1c0.2,0.8,0.9,3.3,0.3,4.8c-3.2-0.5-6.4-0.3-9.4,0.8c-2.3-2.2-2.8-7.9-1.5-10.6c0.6-1.3,3.3-2.2,5-2.4
	c0.5,0.8,1.2,1.5,1.9,2c2.4,1.7,5,3.1,7.7,4.2c0.4,0.2,0.9,0.4,1.3,0.7l0,0c0.7,0.5,1.3,1.1,2.1,1.7c0.2-1.3,0.4-2.6,0.4-3.9
	c0.7,0,1.2,0,1.7,0h0.4c0.1,0-0.5-1.2-0.1-1.6c0.1,0.6,0.4,1.1,0.8,1.5c0.2,0.2,1,1,1.3,0.5c1.1-1.4,2.6,0,2.6,0
	c-0.4-0.2-0.9-0.2-1.3-0.2c-4.5,2.2,7.6,5.7,8,8.2l0,0c1.6,5.2,1.8,10.8,0.6,16.1c-0.6,1.7-1,3.4-1.2,5.2
	C63.2,73.6,60,71.7,52.7,71.1z M77.1,51.8c0,2.6-0.6,5.1-3.4,6.1c-2.3,0.8-3-1.6-3.4-1.7c-0.4-0.1-0.9,0-1.2,0.3
	c0.3,0,0.6,0.1,0.9,0.3c0.6,1.3,1.7,2.3,3,2.7v0.2c-0.1,2.1-0.1,7.1-0.9,10c-0.5,1.9-2.1,1.6-2.6,3.5c-0.7,0.2-1.4,0.3-2.2,0.4
	c0.1-1.7,0.5-3.4,1.2-5c1.1-4.7,1.1-9.5,0-14.2c2.8-6.2-0.6-9.2-6.9-11.1l-1-0.3c0.1-0.4,0.1-0.7,0-1.1c0.2-0.3,0.4-0.6,0.5-0.9
	l0.1-0.2c0.6,0.3,1.3,0.5,1.9,0.6l0.1-1c-0.9-0.1-1.7-0.5-2.4-1l-0.4-0.3c3.8,1.3,8,0.2,10.7-2.9c0.7,0.1,1.3,0,2-0.1
	c-0.5,1.6-0.7,3.3-0.5,5c0,0.3,0.1,0.7,0.2,1l-0.3-0.6c-8.1,1.5,0.5,6,2.7,7.9C76,49.8,76.7,50.7,77.1,51.8L77.1,51.8z M73.3,43.8
	c-0.3-0.1-0.6-0.1-0.9-0.1c-0.4,0-0.8,0.1-1.2,0.2c-0.1-1,0.3-1.3,1.5-1.8C72.9,42.6,73.1,43.2,73.3,43.8L73.3,43.8z M78.7,45.8
	c-0.1,0-1.9,0-3-0.1l0.1-0.1c-1.3-1.3-2.1-3-2.2-4.8c-0.2-2.1,0.1-4.1,1-6c0.7,0,1.6-0.1,2.5-0.1c-0.4,0.5-0.8,1.1-1,1.7
	c-0.3,1-0.4,2-0.2,3c0.8-0.2,0.3-0.9,0.9-2.8c0.5-1.3,1.9-2.8,3.4-1.7c-0.1,0.1-0.2,0.3-0.3,0.4c-1-0.3-2.1,0.3-2.4,1.4
	c0,0,0,0.1,0,0.1c-0.2,0.6-0.2,1.2-0.2,1.7c0.1,2.3,0.8,4.5,2,6.5C79.7,45.8,79.3,45.7,78.7,45.8L78.7,45.8z"/>
<path d="M31.2,31.3c-0.4,1.4-0.3,2.9,0.3,4.3c0.5-0.8,1.1-1.6,1.7-2.3C32.3,32.8,31.6,32.1,31.2,31.3z"/>
<path d="M53.8,26.6c0.2,0.1,0.4,0.1,0.7,0.1c0.1,0,0-0.3,0-0.3c0.4,0.3,0.8,0.5,1.2,0.7c0.4,0,0.8-0.2,1-0.5c0,0.2-0.1,0.3-0.2,0.4
	c0.2,0,0.5,0,0.7-0.2c0.2-0.4,0.1-0.9-0.1-1.2c-0.3-0.7-0.3-1.5-0.2-2.2c-0.6,1.9,0.2,2,0.1,2.9c-1,0.7-1.3-0.2-1.9-0.3
	c-0.3,0-0.6,0-0.9,0.2c-0.2-0.3-0.1-0.7,0.2-0.9c-0.4,0.1-0.7,0.5-0.6,0.9C53.6,26.3,53.7,26.5,53.8,26.6L53.8,26.6L53.8,26.6z"/>
<path d="M54.4,20.2c0.4,0.2,0.5,0.5,0.6-0.2c0.1-0.3,0.1-0.5,0-0.8c-2.2-2.7-5.6-2.2-6.5-1C51.3,16.7,52.8,19.3,54.4,20.2z"/>
<path d="M51,19.6c-1.1,0.1-2,0.2-2.5-0.3c0,0.6,0.6,1.2,1.2,1.2c0.1,0.5,0.4,0.9,0.9,1c-0.3-0.3-0.4-0.7-0.2-1.1
	c0.2-0.1,0.4-0.2,0.6-0.2c-0.3,0.4-0.2,1,0.2,1.3c0.5,0,1,0.1,1.4,0.3c0.5-0.1,0.8-0.6,0.6-1.1c-0.1,0.2-0.2,0.4-0.4,0.6
	c-0.3,0.3-0.7,0.3-1.1,0.1c0.4,0.1,0.9-0.1,1-0.6c0-0.1,0-0.3,0-0.4c0.6,0.1,1,0.6,1,1.2c0,0.2-0.2,0.5-0.5,0.5l0.5,0.1h0.4
	c0,0,0-0.1,0-0.2C54.3,20,52.7,19.5,51,19.6z M51.8,20.6c0,0.1-0.2,0.2-0.3,0.2c-0.1,0-0.2-0.2-0.2-0.3c0,0,0,0,0,0
	c0-0.1,0.2-0.2,0.3-0.2C51.7,20.4,51.8,20.5,51.8,20.6C51.8,20.6,51.8,20.6,51.8,20.6L51.8,20.6z"/>
<path d="M50.4,27.7c0.2,0.1,0.5,0.1,0.7,0.1c0.4,0.2,0.6,1.6,1.1,2.2c1.2,1.7,3.6,2.1,4.8,0.2c0.3-0.5,0.3-1.4,0.8-1.8
	c0.3,0.1,0.6-0.1,0.6-0.4c0-0.2,0-0.3-0.1-0.4c-0.3,0.8-1.3,0.2-1.9,0.2c-0.4,0-0.7,0.1-1.1,0.2c-0.4-0.3-0.8-0.5-1.3-0.5
	c-0.9-0.1-1.8-0.1-2.7-0.1l0,0c-0.4,0.1-0.9-0.1-1-0.6c0,0,0,0,0,0c-0.2,0-0.3,0.2-0.4,0.4C50,27.4,50.1,27.6,50.4,27.7
	C50.4,27.7,50.4,27.7,50.4,27.7z M53.3,28.4c0.4,0.1,0.9,0.2,1.3,0.4C54.8,29,55,29,55.3,29l0,0c0.2,0,0.4-0.1,0.5-0.1
	c0.2-0.1,0.5-0.1,0.7-0.1h0.2c-0.1,0.2-0.2,0.4-0.3,0.6c-1,1.3-2.5,0.7-3.5-0.3c-0.3-0.3-0.6-0.7-0.8-1
	C52.5,28.3,52.9,28.4,53.3,28.4z"/>
<path d="M57.2,22.6c0.2,0,0.5,0,0.7,0c-0.2-0.1-0.3-0.4-0.2-0.6c0,0,0-0.1,0-0.1h-0.3c-0.1,0.1-0.1,0.3-0.2,0.4
	C57.1,22.5,57.1,22.6,57.2,22.6z"/>
<path d="M62.2,58.4c-0.2,0.8-0.5,1.6-1,2.3c-0.5,1-1.2,2-2,2.8l0.4,0.3c1.1-0.6,2.1-1.5,2.8-2.5l0.3-0.5l0.2-0.1
	c2-1.2,3.6-2.2,4.5-4.6l-0.6-2.8C65.8,55.7,64.7,57.4,62.2,58.4z"/>
<path d="M58.3,22.7c0.5-0.1,1,0,1.4,0.2c0.2-0.2,0.4-0.4,0.5-0.7l-0.5-0.1c-0.1,0.3-0.5,0.4-0.8,0.3c0.2,0,0.4-0.1,0.5-0.3l-0.9,0
	h-0.1h-0.1H58C57.9,22.3,58.1,22.5,58.3,22.7z"/>
<path d="M54.1,22.1c0.1,0,0.1,0,0.2-0.1h-0.4C53.9,22.1,54,22.1,54.1,22.1z"/>
<polygon points="57.5,11.9 57,10.3 56.4,11.9 54.6,11.9 56,12.9 55.4,14.5 56.9,13.6 58.3,14.6 57.8,12.9 59.3,12 "/>
</svg>
