<svg id="Layer_1" data-name="Layer 1" xmlns="http://www.w3.org/2000/svg" viewBox="0 0 382.63 361.74"><defs><style>.cls-1{fill:#231f20;}.cls-2,.cls-3{fill:#ed1c24;}.cls-2,.cls-6{fill-rule:evenodd;}.cls-4{fill:none;}.cls-5{fill:#2f7de1;}.cls-6{fill:#fff;}</style></defs><title>casino pilots master logo</title><path class="cls-1" d="M108.26,541.68a15.63,15.63,0,0,1,4.4-11.18,14.6,14.6,0,0,1,21.32,0,15.63,15.63,0,0,1,4.4,11.18v5.67H128.32v-5.67a6,6,0,0,0-1.45-4.06,4.58,4.58,0,0,0-7.08,0,6,6,0,0,0-1.45,4.06v42.94a6,6,0,0,0,1.45,4.06,4.58,4.58,0,0,0,7.08,0,6,6,0,0,0,1.45-4.06V579h10.06v5.67a15.63,15.63,0,0,1-4.4,11.18,14.6,14.6,0,0,1-21.32,0,15.63,15.63,0,0,1-4.4-11.18V541.68Z" transform="translate(-108.26 -238.69)"/><path class="cls-1" d="M143,541.68a15.63,15.63,0,0,1,4.4-11.18,14.6,14.6,0,0,1,21.32,0,15.63,15.63,0,0,1,4.4,11.18V599H163V588.95H153V599H143V541.68ZM163,579V541.68a6,6,0,0,0-1.45-4.06,4.58,4.58,0,0,0-7.08,0,6,6,0,0,0-1.45,4.06V579h10Z" transform="translate(-108.26 -238.69)"/><path class="cls-1" d="M192.66,553.09a14.17,14.17,0,0,1,10.66,4.62,15.63,15.63,0,0,1,4.4,11.18v15.73a15.63,15.63,0,0,1-4.4,11.18,14.6,14.6,0,0,1-21.32,0,15.63,15.63,0,0,1-4.4-11.18V579h10.06v5.67a6,6,0,0,0,1.45,4.06,4.58,4.58,0,0,0,7.08,0,6,6,0,0,0,1.45-4.06V568.9a6,6,0,0,0-1.45-4.06,4.52,4.52,0,0,0-3.54-1.68A14.16,14.16,0,0,1,182,558.53a15.63,15.63,0,0,1-4.4-11.18v-5.67A15.63,15.63,0,0,1,182,530.5a14.6,14.6,0,0,1,21.32,0,15.63,15.63,0,0,1,4.4,11.18v5.67H197.66v-5.67a6,6,0,0,0-1.45-4.06,4.58,4.58,0,0,0-7.08,0,6,6,0,0,0-1.45,4.06v5.67a6,6,0,0,0,1.45,4.06A4.52,4.52,0,0,0,192.66,553.09Z" transform="translate(-108.26 -238.69)"/><path class="cls-1" d="M212.31,527.3h10.06V599H212.31V527.3Z" transform="translate(-108.26 -238.69)"/><path class="cls-1" d="M228.42,525.88l20.05,27.66V527.3h10.06V599H248.47v-28.4l-10-13.87V599H228.42V525.88Z" transform="translate(-108.26 -238.69)"/><path class="cls-1" d="M263.12,541.68a15.63,15.63,0,0,1,4.4-11.18,14.6,14.6,0,0,1,21.32,0,15.63,15.63,0,0,1,4.4,11.18v42.94a15.63,15.63,0,0,1-4.4,11.18,14.6,14.6,0,0,1-21.32,0,15.63,15.63,0,0,1-4.4-11.18V541.68Zm10.07,0v42.94a6,6,0,0,0,1.45,4.06,4.58,4.58,0,0,0,7.08,0,6,6,0,0,0,1.45-4.06V541.68a6,6,0,0,0-1.45-4.06,4.58,4.58,0,0,0-7.08,0A6,6,0,0,0,273.19,541.68Z" transform="translate(-108.26 -238.69)"/><path class="cls-1" d="M336.33,527.3a14.28,14.28,0,0,1,10.29,4.81,15.61,15.61,0,0,1,4.25,11v30.12a15.54,15.54,0,0,1-4.4,11.11,14.17,14.17,0,0,1-10.66,4.62h-5V599H320.75V527.3h15.58Zm-5.52,10.06V579h5a4.48,4.48,0,0,0,3.54-1.71,6,6,0,0,0,1.46-4V543.1a6,6,0,0,0-1.46-4.06,4.52,4.52,0,0,0-3.54-1.68h-5Z" transform="translate(-108.26 -238.69)"/><path class="cls-1" d="M355.46,527.3h10.06V599H355.46V527.3Z" transform="translate(-108.26 -238.69)"/><path class="cls-1" d="M371.56,527.3h10.07v61.65h15.06V599H371.56V527.3Z" transform="translate(-108.26 -238.69)"/><path class="cls-1" d="M399.26,541.68a15.63,15.63,0,0,1,4.4-11.18,14.6,14.6,0,0,1,21.32,0,15.63,15.63,0,0,1,4.4,11.18v42.94a15.63,15.63,0,0,1-4.4,11.18,14.6,14.6,0,0,1-21.32,0,15.63,15.63,0,0,1-4.4-11.18V541.68Zm10.07,0v42.94a6,6,0,0,0,1.45,4.06,4.58,4.58,0,0,0,7.08,0,6,6,0,0,0,1.45-4.06V541.68a6,6,0,0,0-1.45-4.06,4.58,4.58,0,0,0-7.08,0A6,6,0,0,0,409.33,541.68Z" transform="translate(-108.26 -238.69)"/><path class="cls-1" d="M457.64,527.3v10.06h-7.53V599H440V537.36h-7.53V527.3h25.12Z" transform="translate(-108.26 -238.69)"/><path class="cls-1" d="M475.84,553.09a14.17,14.17,0,0,1,10.66,4.62,15.63,15.63,0,0,1,4.4,11.18v15.73a15.63,15.63,0,0,1-4.4,11.18,14.6,14.6,0,0,1-21.32,0,15.63,15.63,0,0,1-4.4-11.18V579h10.07v5.67a6,6,0,0,0,1.45,4.06,4.58,4.58,0,0,0,7.08,0,6,6,0,0,0,1.46-4.06V568.9a6,6,0,0,0-1.46-4.06,4.52,4.52,0,0,0-3.54-1.68,14.17,14.17,0,0,1-10.66-4.62,15.63,15.63,0,0,1-4.4-11.18v-5.67a15.63,15.63,0,0,1,4.4-11.18,14.6,14.6,0,0,1,21.32,0,15.63,15.63,0,0,1,4.4,11.18v5.67H480.83v-5.67a6,6,0,0,0-1.46-4.06,4.58,4.58,0,0,0-7.08,0,6,6,0,0,0-1.45,4.06v5.67a6,6,0,0,0,1.45,4.06A4.52,4.52,0,0,0,475.84,553.09Z" transform="translate(-108.26 -238.69)"/><path class="cls-2" d="M179.74,461.26c-5.06,11.52,6.26,19.23,16,9.85,5.36-5.15,4.21-13,3.35-18.17-0.84-5-1.44-8.54-.56-10-1.45.86-5.3,0-10.05-.73-5.19-.81-13-2.35-18.25,2.88-9.66,9.53-1.66,20.81,9.5,16.22" transform="translate(-108.26 -238.69)"/><polygon class="cls-3" points="80.95 119.65 57.34 129.84 41.23 107.69 66.2 97.95 80.95 119.65"/><path class="cls-1" d="M197.7,323.93a13.07,13.07,0,0,0,2.81-14,18.8,18.8,0,0,1,5.31,14A111.12,111.12,0,0,1,214.67,313a21,21,0,0,1-12.7-4.31,13.05,13.05,0,0,0,12.95-3.52,12.74,12.74,0,1,0-18.31-17.7c-0.16.16-.26,0.35-0.41,0.52a12.34,12.34,0,0,0-1.75-2.14,13.07,13.07,0,0,0-18.17,18.79,12.34,12.34,0,0,0,2.81,2,12.71,12.71,0,1,0,18.6,17.32m-2.76-20.37,0.21,0.31-0.32-.16,0.11-.15" transform="translate(-108.26 -238.69)"/><path class="cls-1" d="M186.5,416.81a110.89,110.89,0,0,1-1.61-18.13c0-1.83.19-3.61,0.27-5.42-2.39,4.64-7.25,10.61-17.13,13,11.83-8.28,6.89-24.51-10.72-23-10.25.86-12.4,10.12-16.23,16.31-3.5,5.67-9.29,10.77-11.5,11.53,2.37,0.43,8.79,4,13.28,9.33,4.64,5.54,8.66,14.12,18.9,13.13,17.89-1.74,20.34-19,5.8-24.9,4.87-.2,13.08.84,18.93,8.17" transform="translate(-108.26 -238.69)"/><path class="cls-2" d="M434.74,445c-5.29-5.22-13.06-3.69-18.25-2.88-4.75.74-8.6,1.6-10.05,0.73,0.88,1.5.28,5.05-.56,10-0.86,5.14-2,13,3.35,18.17,9.75,9.38,21.07,1.67,16-9.85,11.16,4.59,19.15-6.69,9.5-16.22" transform="translate(-108.26 -238.69)"/><polygon class="cls-3" points="317.4 114.41 341 124.59 357.11 102.44 332.14 92.7 317.4 114.41"/><path class="cls-1" d="M425.67,311.62a12.87,12.87,0,0,0,.37-17.87,12.35,12.35,0,0,0,2.81-2A13.07,13.07,0,0,0,410.68,273a12.19,12.19,0,0,0-1.75,2.14c-0.15-.17-0.26-0.36-0.41-0.52a12.74,12.74,0,1,0-18.31,17.7,13.06,13.06,0,0,0,13,3.52,21,21,0,0,1-12.7,4.31,111.18,111.18,0,0,1,8.86,10.95,18.79,18.79,0,0,1,5.31-14,13.07,13.07,0,0,0,2.8,14,12.91,12.91,0,0,0,18.24.54m-15.36-20.77L410,291l0.21-.31,0.12,0.15" transform="translate(-108.26 -238.69)"/><path class="cls-1" d="M415.58,417.78a110.71,110.71,0,0,0,1.61-18.13c0-1.83-.19-3.61-0.28-5.42,2.39,4.64,7.26,10.61,17.13,13-11.83-8.28-6.89-24.51,10.72-23,10.25,0.86,12.41,10.12,16.23,16.31,3.5,5.67,9.29,10.77,11.5,11.53-2.37.43-8.79,4-13.28,9.33-4.64,5.54-8.66,14.12-18.9,13.13-17.89-1.74-20.33-19-5.8-24.9-4.87-.2-13.08.84-18.93,8.17" transform="translate(-108.26 -238.69)"/><path class="cls-1" d="M227.21,480.28c-5.89,1.87-10.1,3.6-10.1,3.6-17.3,5.66-55.55,2-55.55,2,4.71,5.95,34.57,11.47,34.57,11.47-13.39,5.52-55.8-7.56-55.8-7.56s32.11,34.94,72.32,20.29a138,138,0,0,1,50-8.14,110.26,110.26,0,0,1-35.39-21.7" transform="translate(-108.26 -238.69)"/><path class="cls-1" d="M375.82,480.28c5.89,1.87,10.1,3.6,10.1,3.6,17.3,5.66,55.55,2,55.55,2-4.71,5.95-34.57,11.47-34.57,11.47,13.39,5.52,55.8-7.56,55.8-7.56s-32.11,34.94-72.32,20.29a138,138,0,0,0-50-8.14,110.24,110.24,0,0,0,35.39-21.7" transform="translate(-108.26 -238.69)"/><path class="cls-4" d="M300.87,483.47a85,85,0,0,0,81.82-62.07H219A85,85,0,0,0,300.87,483.47Z" transform="translate(-108.26 -238.69)"/><path class="cls-5" d="M302.33,308.67a91,91,0,1,0,91,91,91,91,0,0,0-91-91" transform="translate(-108.26 -238.69)"/><path class="cls-1" d="M200.78,400.37A101.71,101.71,0,1,0,302.49,298.67,101.71,101.71,0,0,0,200.78,400.37m6.78,0a94.93,94.93,0,1,1,94.93,94.93,94.93,94.93,0,0,1-94.93-94.93" transform="translate(-108.26 -238.69)"/><path class="cls-6" d="M274.18,256.64c-2.52,1.69-26.59,49.7-26.63,51.1s2.39,27.19,2.39,27.19l-1.47,19.9-15.61,10.61s-1.46,12.27-1.17,14.39,1.45,37,2.12,38.47,5.63,12.49,5.63,12.49,6.77,21.68,6.67,25.2,2.72,8.46,2.72,8.46L247,474c20.3,12.25,19.23,11.47,22.51,12.71,0.52,0.2,1.51-10.89,2.92-10.85,1.89,0.05-3.61-21.8-.53-22,1-.06.59-34.92,2.68-29.46,1.48,3.89,16.88,6,16.07,18.21-1.07,16.07-9.73,38.12-8.57,38,20-1.61,52.13-1.25,52.13-1.25l10.35-6.78L351.67,457,355.6,428l14.64-22.5L355.81,389.4l-6.14-6.87,14.14,5.15,9.64-1.78,4.29-3.57,29.64-8.57,15-13.57-1.07-10.71-16.42-20.35-36.78-20.35L350.24,292.7l-11.55-6.29-20.95-8L316,291.75l13.91,6.39,9.93,9.8,14.56,8.17,6.2,0.88,15.71,15,11.07,21.78-7.29-.29-7-5.78-2.69-.49-13,0s-3.54-.55-3.57.51-3.21,3.57-3.21,3.57l-17.86-4.79-14.46.64,2.33-19.78,3.93-19.28L311,290.56l8.57-19.28-8.21-17.5-23.21-13.21Z" transform="translate(-108.26 -238.69)"/><path class="cls-4" d="M308.15,308.84l-0.43,0a0.48,0.48,0,0,0,.27.08A0.46,0.46,0,0,0,308.15,308.84Z" transform="translate(-108.26 -238.69)"/><ellipse class="cls-4" cx="286.42" cy="304.32" rx="0.82" ry="0.72" transform="translate(-192.42 258.81) rotate(-74.27)"/><path class="cls-4" d="M309.18,310.1a1.87,1.87,0,0,0,2.34-1l-0.76-.06A1.74,1.74,0,0,1,309.18,310.1Z" transform="translate(-108.26 -238.69)"/><path class="cls-4" d="M291.68,308.69a1.57,1.57,0,0,0,1.41-1.5c0.24-1.79-1.11-3-2.94-3.72,0.46,1.87-1.22,3.78-3,3.2a2.42,2.42,0,0,0,3.26-.21,4.84,4.84,0,0,0,1.13-1.87,3,3,0,0,1-1.93,3.57,10.24,10.24,0,0,0-4.41-.94c-1.14-.75-1.4-3-0.59-4.31a5.3,5.3,0,0,0-1.84.61c-0.64,1.34,0,2.5.66,3.54a3.59,3.59,0,0,1-2.77-3.13c-2.55-.22-3.31-1.72-3.67-3.67,1.4,1.56,4.29,1.34,7.63,1,5.18-.53,10.29,1.08,10,7.31a1.13,1.13,0,0,1-.09.48c2.67-.24,5.37-0.38,8.11-0.38,0.43,0,.86,0,1.29,0,2.1-4.76,6.79-4.71,10.42-2.88a15.38,15.38,0,0,0,1.77.8c0.84-2.41,1.39-4,.66-6.11-4-.81-8.3,3-11.78,4-1.07.32-1.72,1.12-1.25-1,0.31-1.37.3-2,.84-2.47,4.06-3.21,8-3.68,11-2.77-4.41-5.3-15.85,5-28.9-14-0.55-.79-2.46-6.4-5.93-8.86,1.64,1.49,4.61,8.22,4.54,8.81-1,7.79-12.59,12.14-12,18.86l-1,6.83c-2,.41-1.86-0.32-2.53-2.75-1.47-5.28-5.73-2.56-8.48-5,0.31,7.21,1.64,13.2,6.1,13.28,0,0.08,0,.18,0,0.26a90.48,90.48,0,0,1,25.8-6.59C292.87,309,292.4,308.88,291.68,308.69ZM297,300c0.45,0.57.19,1.19,0,2.57-0.26,2.12-.7,1.15-1.78.5-4.86-2.93-9.47-11.21-17.9-6.12C280,293,290.24,291.35,297,300Z" transform="translate(-108.26 -238.69)"/><path class="cls-4" d="M269.36,326.72c4.94,6.82,8.8,9.67,12.24,13.12,6.94,7,18.23,12,22.49.08,3.92-11,15.53-15.72,10.66-28.62l0-.15a2.61,2.61,0,0,1-1.94.6,4.64,4.64,0,0,0,1.57-2.31l-1.42-.18a4.17,4.17,0,0,1-1.54,2.17,8,8,0,0,0-4.39-.54,2.12,2.12,0,0,1-1.07-2.14l-0.67,0a3,3,0,0,0-.15.4,1.54,1.54,0,0,0,.64,1.85,5.66,5.66,0,0,1-2.13-.15c-0.33-.17-0.35-0.31-0.2-0.83a10.52,10.52,0,0,1,.48-1.31c-0.43,0-.86,0-1.29,0-2.73,0-5.43.14-8.11,0.38a0.49,0.49,0,0,1-.45.22,2.35,2.35,0,0,1-.88-0.11,90.48,90.48,0,0,0-25.8,6.59C267.37,318.58,267,323,269.36,326.72Zm25.16-7.47c-0.63.44-.88,1.3-0.47,2.9a6.08,6.08,0,0,1,2.77-.52c1.91,0.42,2.79,3,5.78.93,0.4-2.74-2.12-3.3-.17-9.22a14.72,14.72,0,0,0,.64,7.1,3.88,3.88,0,0,1,.36,3.9,3.09,3.09,0,0,1-2.09.53,1.34,1.34,0,0,0,.72-1.28c-0.76,1-2.07,1.93-3,1.68-2-.54-2.11-1.87-3.51-2.27-0.18-.05.12,0.87-0.09,0.88a3.79,3.79,0,0,1-2-.4h0C292.16,321.89,292.48,319.68,294.52,319.24Zm-12.43,6.14a1.34,1.34,0,0,1,1.11-1.14c0.22,1,.7,1.84,2.91,1.9h0a57.3,57.3,0,0,1,8.2.4q3.13,0.46,4,1.5a7,7,0,0,1,3.22-.78c1.77,0,4.74,2,5.71-.52,0.83,1.92-.33,2.87-1.62,2.74-1.58,1.11-1.6,4.14-2.53,5.67-3.66,6-11,4.53-14.73-.78-1.31-1.86-2.15-6.31-3.24-7A4.8,4.8,0,0,1,283,327,1.32,1.32,0,0,1,282.1,325.39Z" transform="translate(-108.26 -238.69)"/><path class="cls-4" d="M248.34,338.76c-1.84,2.75-7.47,6.54-12,2.92,6-3.14,7.12-6.39,7.16-11.16a91.61,91.61,0,0,0-13.3,14.06C236.86,348.23,245.5,345.93,248.34,338.76Z" transform="translate(-108.26 -238.69)"/><path class="cls-4" d="M332.6,329.84c-0.71,3.85-1.57,6.73,1,9.94a8.39,8.39,0,0,1-6.42-4c1.62,10.11,18.25,9.46,15.27-2.63,6.52,3.49,6.63,12.68,5.41,16.71,0.36,0,2.78-.36,3.09-0.38,0-.08.92-3.75,4.1-4.29,2.42-.28,2.94.35,6.58,0.37,5.86,0,14.44-2.38,16.28,5.48,0.56,0,1.13,0,1.7,0a91.19,91.19,0,0,0-52.28-39,1.15,1.15,0,0,0-.14.41C327.28,315.89,335,317.06,332.6,329.84Z" transform="translate(-108.26 -238.69)"/><path class="cls-4" d="M301.28,332.41a6.25,6.25,0,0,0,1-2h-0.62a7.14,7.14,0,0,0-2.22.45,10.92,10.92,0,0,1-1.59.41h0a4.15,4.15,0,0,1-2-.64,12.21,12.21,0,0,0-3.87-1.31,23.1,23.1,0,0,1-3.91-1.08,12,12,0,0,0,2.45,3.35C293.73,334.71,298.21,336.39,301.28,332.41Z" transform="translate(-108.26 -238.69)"/><path class="cls-4" d="M375.95,355.44a12.07,12.07,0,0,0-5.09,1.57,10.84,10.84,0,0,0-.57,4.33c0.18,7.2,3.84,12.77,6,17.53a77.13,77.13,0,0,0,14.64-1.79,90.36,90.36,0,0,0-8.52-21.41A25.83,25.83,0,0,0,375.95,355.44Z" transform="translate(-108.26 -238.69)"/><path class="cls-4" d="M308.58,308.05a0.74,0.74,0,0,0-.63-0.81,0.75,0.75,0,0,0-.6.84,0.87,0.87,0,0,0,.37.73l0.43,0A0.81,0.81,0,0,0,308.58,308.05Z" transform="translate(-108.26 -238.69)"/><path class="cls-4" d="M306.14,307.41a3.16,3.16,0,0,0-.8,1.32l0.67,0A5.69,5.69,0,0,1,306.14,307.41Z" transform="translate(-108.26 -238.69)"/><path class="cls-4" d="M379.64,351.08a37.7,37.7,0,0,1,5.85.78c-8.44-13.18-25.92-33.49-30.57-33-4,.58-8.35-0.65-15.07-10.58a119.43,119.43,0,0,0-10.47-8.21c1.65,6.25-1.34,10.54-2,12A91.19,91.19,0,0,1,379.64,351.08Z" transform="translate(-108.26 -238.69)"/><path class="cls-4" d="M312,306.84a8.21,8.21,0,0,0-1-.3,3.27,3.27,0,0,1-.2,2.5l0.76,0.06A3.53,3.53,0,0,0,312,306.84Z" transform="translate(-108.26 -238.69)"/><polygon class="cls-4" points="207.38 59.62 207.38 59.62 207.38 59.62 207.38 59.62"/><path class="cls-4" d="M243.09,448c-1.14-4.2-2.23-8.8-3.46-14.66a6.9,6.9,0,0,1-1,0c-4-.48-6.61-5.64-7.49-9.18a23,23,0,0,1-.58-4.39,11,11,0,0,1-1.3-6.53,7.56,7.56,0,0,1,1.44-3.35c-1.13-8-2.85-16.48-2.86-22.42q0-12.45,3.11-19.39c1.83-4,5.87-7,9.22-8.4-6.09-.18-12.31-1.73-15-7.56a91,91,0,0,0,20.66,118.71c0.4-3.14.83-6.3,1.37-9.53C245.58,456.52,244.3,452.44,243.09,448Z" transform="translate(-108.26 -238.69)"/><path class="cls-4" d="M404.76,371.92a62.59,62.59,0,0,0,9.64-6.71c4.09-3.55,7.23-7.72,5-11a179.44,179.44,0,0,0-12-16,57.54,57.54,0,0,0-18.6-14.39l-0.1,0-0.11-.07q-19.34-12.18-30.36-20.25-10.39-7.61-13.52-11.77l-2.52-.78c-3.18-.82-5.32-2.75-9.2-4-4-1.3-9.79-1.94-12.87-3.6l-1.47-.82c-1.74.35-.11,2.83,0.69,3.45-1.92,2.93,3.07,4.44,5.81,6.24-0.56.55-.91,1.74,1.39,2.49,5.47,1.77,9.73,3.19,14.13,7.69,6.72,9.94,11,11.16,15.07,10.58,6.05-.67,33.39,32.39,35.29,42.67h0a6.11,6.11,0,0,0,1.68,1.7c4.5,3.13,6.41,1.58,5.72,5.75-2.48-.07-6.19-0.83-8.18-2.22a9.9,9.9,0,0,1-3.58-4.34,39.21,39.21,0,0,0-4.21-.87,90.36,90.36,0,0,1,8.52,21.41A51.46,51.46,0,0,0,404.76,371.92Z" transform="translate(-108.26 -238.69)"/><path class="cls-4" d="M314.5,308.52a4.29,4.29,0,0,0-1.52-1.25,2.93,2.93,0,0,1,0,2l1.42,0.18A3.24,3.24,0,0,0,314.5,308.52Z" transform="translate(-108.26 -238.69)"/><path class="cls-4" d="M287.45,452.3A22.09,22.09,0,0,0,275.53,430c0.62,4.51-.25,9-1.21,14-1.18,6.1-2.49,12.9-.88,20.79,1.47,4.55,1.83,11.74,1.1,21.53l0.35,0.12c3-9.25,8.37-17.79,8.51-20C280.84,463,284.79,455.7,287.45,452.3Z" transform="translate(-108.26 -238.69)"/><path class="cls-4" d="M292,258.22a41.48,41.48,0,0,0,14.26,6.2l0,0.08a12.48,12.48,0,0,0,3.38-8.66,18.6,18.6,0,0,0-6.53-5.44,51.56,51.56,0,0,0-13-4.57,18.05,18.05,0,0,0-7,3.79A40.41,40.41,0,0,0,292,258.22Z" transform="translate(-108.26 -238.69)"/><path class="cls-4" d="M358.19,395.38c-6.66-5.87-32.68-20.24-8.11-25.14l0.8,1.84q-0.3-1.55-.46-3.16A41.58,41.58,0,0,1,352.07,353a20.92,20.92,0,0,1-6,.28c-6.41,8.85-20.94,13.78-32.53,9.23q0.61,0.58,1.24,1.09a14.37,14.37,0,0,0,7.22,3.3l-0.42,3.2a16.42,16.42,0,0,1-5.87-2c-0.06.19-.13,0.38-0.2,0.57a9.56,9.56,0,0,1-1.44,2.9,5.9,5.9,0,0,1,0,3.44c0.92,0.32,1.94.64,3,1,19,6.06,29.41,15.68,20.92,35.49,3.43,15,3,33.14-.11,45.32-1.08,4.19-3.39,8.88-3.57,16.1a27.54,27.54,0,0,0,6.59-1.15c1.36-5.94,6.3-5,7.84-11.12,2.39-9.47,2.3-25.46,2.7-32l0-.56a15.3,15.3,0,0,1-9.07-8.58c-0.32-.73-1.6-0.87-2.61-1,2-1.14,2.76-1.15,3.76-.8,1.2,0.42,3.33,8.09,10.27,5.44,8.41-3.21,10.4-11.22,10.33-19.46Q363,399.61,358.19,395.38Z" transform="translate(-108.26 -238.69)"/><path class="cls-4" d="M313.23,261.36a15.31,15.31,0,0,1-5.91,7c-7.9,5.24-20.62,5.21-28.73,3.48,3.86,3.89,15.32,15.47,25.88,15.22,8.34-4.3,11.32-8.69,13.09-11.66-0.91-2.21-1.83-4.36-2.6-6.54A29.85,29.85,0,0,1,313.23,261.36ZM307,285.22l-4.32-3.35L298.19,285l1.85-5.15-4.33-3.33,5.46,0.17,1.83-5.15,1.53,5.25,5.47,0.15L305.47,280Z" transform="translate(-108.26 -238.69)"/><path class="cls-4" d="M299.1,268.44a21.86,21.86,0,0,0,2.66-.94,43.8,43.8,0,0,1-21.5-14.69c-2.35,3.35-5.31,8.09-6.54,12.5,1.84,3,6.06,4.39,10.78,4.73A44.78,44.78,0,0,0,299.1,268.44Z" transform="translate(-108.26 -238.69)"/><path class="cls-4" d="M248.8,420.57c1.78-3.38,13-4,16.54-3.56a24.08,24.08,0,0,1,6.66,1.87,36.69,36.69,0,0,1-.84-4.29,13.42,13.42,0,0,1,.05-4.47,4.26,4.26,0,0,0-.75-2.2c-0.5-.47-1.66-0.69-3.93-0.67h-0.09a79.27,79.27,0,0,0-17.15,1.3,58.38,58.38,0,0,0-10.21,2.56,3.29,3.29,0,0,0-1.07,1.7h0a7.18,7.18,0,0,0,.44,2.76c3.15-1.13,6.6-2.59,6.79.64-3.09.66-3.18,0.46-6.11,1.68a26.72,26.72,0,0,0,.44,4.36c0.91,3.62,1.73,4.64,4,4.31,4.59-.68,6-3.22,12.67-4.18a33.06,33.06,0,0,1,15.14,1.38,2.33,2.33,0,0,0,.87-0.55,2.2,2.2,0,0,0,.43-1.59,20.69,20.69,0,0,0-7.61-2.49C260.9,418.57,254,418.66,248.8,420.57Z" transform="translate(-108.26 -238.69)"/><path class="cls-4" d="M334,405.23h0c-1.28-7.82-38-19-24.3-26,1.66-.85,3.87.56,4,0.32-0.19,0-4.67-4.25-8,.1-1.08,1.42-3.61-1-4.09-1.75-0.35.05-2.11-3.13-2.35-4.72-1.31,1.08.64,4.93,0.3,5l-1.31.07c-1.47.05-3.1,0-5.08-.08A71,71,0,0,1,292,390.53c-2.26-1.72-4.17-3.69-6.38-5.3h0a20.94,20.94,0,0,0-3.87-2.29,116,116,0,0,1-23.51-13.28c-3.45-2.62-4.05-3.95-5.85-6.37-5.17.41-13.22,3.37-15.11,7.56-3.88,8.58-2.46,26.82,4.58,33.9,9.06-2.85,19-4.73,28.77-2.51,1.91-5-.34-12.92-0.78-15.45-0.15-.86,5.06-1.49,5.16-0.25a43.12,43.12,0,0,1-.33,9.18c-0.11,1-.23,2.11-0.33,3.33,1.32-2.55,2.77-5.23,3.72-6.72,0.31-.49,2.55,1.89,2.45,2.33-1.87,2.24-1.87,5.47-1.86,8.45a16.59,16.59,0,0,0,.26,2.86c2.08,11.81,16.48,25,35.85,20.05a32.07,32.07,0,0,1-1.12,4.1,27.16,27.16,0,0,1-3.09,6.23,40.69,40.69,0,0,1-19,.33c3,6.06,9.58,11.95,9,18.55-6.48.11-10.17,3.45-10.37,9.95,22,1.89,31.9,8.08,42,7.81,0.12-6.34,2-10.61,3.6-16.58C339.31,442.71,339.28,420.84,334,405.23Zm-13.1,26.9-0.7.42c-0.24.5-.49,1-0.75,1.53-1.78,3.48-6.09,6.67-8.58,8.06l-1.09-1a44.39,44.39,0,0,0,6-9c1.7-3.34,3-5.53,3.11-7.43,7.83-3.15,11-8.65,14-16.24l1.88,9.06C331.77,425.09,327.07,428.35,320.87,432.13Z" transform="translate(-108.26 -238.69)"/><path class="cls-4" d="M268.28,466.27l-0.06-.17,0-.14c-1.85-9-.42-16.37.86-23,1-4.95,1.82-9.42.94-13.46l-0.35,0,0-.68c-7-2.26-15.25-1.94-21.77,1.66-1.49,5.71-.67,11.84.47,16,1.26,4.64,2.57,8.78,4.18,13.59l0.21,0.63-0.11.67c-0.75,4.44-1.32,8.76-1.8,13a90.82,90.82,0,0,0,18.6,10C269.9,476.12,269.55,470.05,268.28,466.27Z" transform="translate(-108.26 -238.69)"/><path class="cls-4" d="M377.69,385.21c-0.39,3.34-5.65,4.54-8.38,4.6q-2.75.06-7.34-.32l0.8,0.68q6.65,5.86,8.18,12.2l0.09,0.37v0.37c0.18,10.43-2.71,20.61-12.69,25.53-0.39,6.36-.83,20.13-2.95,31.77-1.33,7.32-8.3,7.59-8.4,13.27a54.29,54.29,0,0,1,0,5.52,91.14,91.14,0,0,0,44.8-97.93,80.26,80.26,0,0,1-14.22,1.85A7.8,7.8,0,0,1,377.69,385.21Z" transform="translate(-108.26 -238.69)"/><path class="cls-4" d="M364.92,361.46a17.51,17.51,0,0,1,.61-5.56c1-3.22,3.93-6,7.23-4.72a9.09,9.09,0,0,0,.91-1.29c-4.65-3.37-9,1.13-10.44,5.43-2,6-.51,8.12-2.79,8.88a20,20,0,0,1,.74-9.55,16.53,16.53,0,0,1,3.1-5.53c-2.65,0-5.39.16-7.5,0.31a38.89,38.89,0,0,0-3.15,19.18c0.63,6.36,3,11.86,6.69,15.2l-0.22.25c3.24,0.29,8.68.39,9.11,0.38,1.73,0,3,.16,1.76-2.27A43.05,43.05,0,0,1,364.92,361.46Z" transform="translate(-108.26 -238.69)"/><path class="cls-4" d="M346.43,378.59a13.07,13.07,0,0,1,3.51-.67,7,7,0,0,1,2.76.29,30.8,30.8,0,0,1-1.67-5.44C347.4,374.36,346.09,375.24,346.43,378.59Z" transform="translate(-108.26 -238.69)"/><path class="cls-4" d="M283.43,379a25.2,25.2,0,0,1,4.7,2.76h0c0.55,0.4,1.08.82,1.6,1.24a61.07,61.07,0,0,0,.08-8,39.44,39.44,0,0,0-1.64-9.45,66.8,66.8,0,0,1-10.95-3.79c-6.8-3-9-5.24-13.85-8.7,2.35,0.37,4.6-.57,5.13-2.31a20.7,20.7,0,0,1-.49,3.85,86.15,86.15,0,0,0,10.08,5.21c4.5,2,8.28,2.76,12.26,3.9,2.18,1.71,4.82,3.58,6.68,6,0.81-.07,1.63-0.16,2.44-0.26-0.21-1.19,4.4-4.08,8.7-3.62a7.8,7.8,0,0,1,4.11,2.58,3.52,3.52,0,0,0-3.49-3.17,10.08,10.08,0,0,1-3.2-5c-0.06-1.55.84-1.23,0.76-2-2-2.91-4.67-5.72-6.12-9,0,0-7.83,1.66-11.93-.32-4.62-1.42-13.82-7.52-17.72-12.87-1.66-2.28-2-1.41-2,5v7.14c-0.11,2.35.08,2.66-1.93,3a14.53,14.53,0,0,1-5.49-.48c-0.56,0-.39.36-1.07,1.07-1.2,1.26,2,4.5.9,7.4-5.23-2.38-5.55,1.46-5.78,2.23a47.58,47.58,0,0,0,5.55,4.84A111.47,111.47,0,0,0,283.43,379Z" transform="translate(-108.26 -238.69)"/><path d="M422.89,351.78c-6.72-9.62-12.45-17.83-20.62-24.42a60.09,60.09,0,0,0-11.52-7.29q-19.22-12.1-30-20-10.62-7.78-12.94-11.31l-0.42-.63-0.72-.23-3.25-1c-5.21-1.61-13.9-3.76-19-5.93-0.78-2-.93-2.38-1.73-4.23l0.46-.86L324,274.3l-0.75-1.55c-0.27-.55-0.73-1.64-1.25-2.94s-1.19-3-1.71-4.5c-1.06-3-1.94-5.59-3.42-10.26-9.21-10.1-11.37-13-26.12-16.17l-0.8-.18-0.78.2a24.68,24.68,0,0,0-13,7.87,57.37,57.37,0,0,0-8.93,16.57c-0.33,1,.14,3.49,1.2,3.92-6.13,2.4-12.1,6.21-15,13.16-1.82,4.41-2.4,10.09-1,17.47-2.92,0-3.64.72-6,2.25-6.28,4.11-3.51,16.36-3.06,26.29,0.07,1.49.13,2.85,0.12,4.1a91,91,0,0,1,23.91-14.78c0-.08,0-0.18,0-0.26-4.46-.08-5.79-6.07-6.1-13.28,2.75,2.47,7-.24,8.48,5,0.68,2.43.53,3.16,2.53,2.75l1-6.83c-0.63-6.73,10.94-11.07,12-18.86,0.08-.59-2.9-7.31-4.54-8.81,3.47,2.46,5.38,8.06,5.93,8.86,13,18.95,24.48,8.66,28.9,14h0c-3-.91-6.95-0.44-11,2.77-0.54.42-.53,1.09-0.84,2.47-0.47,2.11.18,1.31,1.25,1,3.48-1,7.76-4.85,11.78-4,0.73,2.1.18,3.7-.66,6.11a15.38,15.38,0,0,1-1.77-.8c-3.62-1.83-8.32-1.88-10.42,2.88l1.36,0a3.16,3.16,0,0,1,.8-1.32,5.69,5.69,0,0,0-.13,1.34c0.57,0,1.14,0,1.71.06a0.87,0.87,0,0,1-.37-0.73,0.75,0.75,0,0,1,.6-0.84,0.74,0.74,0,0,1,.63.81,0.81,0.81,0,0,1-.43.79c0.87,0.05,1.74.12,2.61,0.2a3.27,3.27,0,0,0,.2-2.5,8.21,8.21,0,0,1,1,.3,3.53,3.53,0,0,1-.48,2.26l1.48,0.16a2.93,2.93,0,0,0,0-2,4.29,4.29,0,0,1,1.52,1.25,3.24,3.24,0,0,1-.09.92,90.44,90.44,0,0,1,13,2.64c0.67-1.44,3.66-5.72,2-12a119.43,119.43,0,0,1,10.47,8.21c6.72,9.94,11,11.16,15.07,10.58,4.65-.51,22.14,19.8,30.57,33a37.7,37.7,0,0,0-5.85-.78c1,1.5,1.87,3,2.73,4.59a39.21,39.21,0,0,1,4.21.87,9.9,9.9,0,0,0,3.58,4.34c2,1.38,5.7,2.14,8.18,2.22,0.69-4.17-1.22-2.62-5.72-5.75a6.11,6.11,0,0,1-1.68-1.7h0c-1.9-10.28-29.23-43.34-35.29-42.67-4,.58-8.35-0.64-15.07-10.58-4.4-4.5-8.66-5.92-14.13-7.69-2.29-.74-1.95-1.93-1.39-2.49-2.73-1.8-7.73-3.31-5.81-6.24-0.8-.62-2.43-3.09-0.69-3.45l1.47,0.82c3.08,1.67,8.84,2.3,12.87,3.6,3.87,1.25,6,3.18,9.2,4l2.52,0.78q3.13,4.15,13.52,11.77,11,8.08,30.36,20.25l0.11,0.07,0.1,0a57.54,57.54,0,0,1,18.6,14.39,179.44,179.44,0,0,1,12,16c2.27,3.25-.88,7.42-5,11a62.59,62.59,0,0,1-9.64,6.71,51.46,51.46,0,0,1-13.87,5.16q0.53,2.08,1,4.19a55.6,55.6,0,0,0,15-5.6c2.53-1.42,5.42-3.09,8.12-5C422.12,365.68,428,359.14,422.89,351.78ZM290.09,245.84a51.56,51.56,0,0,1,13,4.57,18.6,18.6,0,0,1,6.53,5.44,12.48,12.48,0,0,1-3.38,8.66l0-.08a41.48,41.48,0,0,1-14.26-6.2,40.41,40.41,0,0,1-9-8.59A18.05,18.05,0,0,1,290.09,245.84ZM273.71,265.3c1.24-4.4,4.19-9.15,6.54-12.5a43.8,43.8,0,0,0,21.5,14.69,21.86,21.86,0,0,1-2.66.94A44.78,44.78,0,0,1,284.5,270C279.77,269.7,275.55,268.35,273.71,265.3Zm30.75,21.78c-10.56.26-22-11.33-25.88-15.22,8.11,1.73,20.83,1.76,28.73-3.48a15.31,15.31,0,0,0,5.91-7,29.85,29.85,0,0,0,1.73,7.53c0.77,2.18,1.69,4.34,2.6,6.54C315.78,278.39,312.8,282.79,304.46,287.09Z" transform="translate(-108.26 -238.69)"/><path d="M376.25,378.87c-2.12-4.76-5.79-10.32-6-17.53a10.84,10.84,0,0,1,.57-4.33,12.07,12.07,0,0,1,5.09-1.57,25.83,25.83,0,0,1,6.43.23c-0.86-1.56-1.78-3.09-2.73-4.59-0.57,0-1.14,0-1.7,0-1.84-7.86-10.42-5.44-16.28-5.48-3.63,0-4.15-.65-6.58-0.37-3.18.55-4.06,4.21-4.1,4.29-0.31,0-2.73.39-3.09,0.38,1.22-4,1.11-13.21-5.41-16.71,3,12.08-13.64,12.73-15.27,2.63a8.39,8.39,0,0,0,6.42,4c-2.61-3.21-1.75-6.09-1-9.94,2.36-12.77-5.32-13.95-5.37-17.35a1.15,1.15,0,0,1,.14-0.41,90.44,90.44,0,0,0-13-2.64,4.64,4.64,0,0,1-1.57,2.31,2.61,2.61,0,0,0,1.94-.6l0,0.15c4.87,12.9-6.74,17.67-10.66,28.62-4.26,11.89-15.55,6.88-22.49-.08-3.44-3.45-7.29-6.29-12.24-13.12-2.35-3.76-2-8.14-1.91-11a91,91,0,0,0-23.91,14.78c0,4.77-1.16,8-7.16,11.16,4.49,3.62,10.12-.16,12-2.92-2.84,7.17-11.48,9.47-18.09,5.82q-2.74,3.6-5.13,7.46c2.72,5.83,8.95,7.38,15,7.56-3.34,1.38-7.39,4.36-9.22,8.4q-3.14,6.94-3.11,19.39c0,5.94,1.73,14.47,2.86,22.42a7.56,7.56,0,0,0-1.44,3.35,11,11,0,0,0,1.3,6.53,23,23,0,0,0,.58,4.39c0.88,3.53,3.47,8.7,7.49,9.18a6.9,6.9,0,0,0,1,0c1.23,5.86,2.32,10.46,3.46,14.66,1.22,4.48,2.5,8.56,4.06,13.26-0.53,3.23-1,6.39-1.37,9.53q2.42,1.94,5,3.72c0.48-4.27,1.06-8.59,1.8-13l0.11-.67-0.21-.63c-1.61-4.81-2.92-8.95-4.18-13.59-1.14-4.19-2-10.33-.47-16,6.52-3.61,14.74-3.92,21.77-1.66l0,0.68,0.35,0c0.88,4,0,8.51-.94,13.46-1.28,6.63-2.71,14-.86,23l0,0.14,0.06,0.17c1.27,3.78,1.62,9.86,1.08,18.16,1.7,0.67,3.43,1.3,5.19,1.87,0.73-9.79.37-17-1.1-21.53-1.61-7.89-.29-14.69.88-20.79,1-4.95,1.83-9.47,1.21-14a22.09,22.09,0,0,1,11.93,22.3c-2.66,3.4-6.62,10.7-4.05,14.15-0.14,2.18-5.52,10.72-8.51,20a91.09,91.09,0,0,0,72.16-7.21,54.29,54.29,0,0,0,0-5.52c0.1-5.68,7.06-5.94,8.4-13.27,2.12-11.64,2.56-25.42,2.95-31.77,10-4.92,12.87-15.1,12.69-25.53v-0.37l-0.09-.37q-1.53-6.34-8.18-12.2l-0.8-.68q4.59,0.38,7.34.32c2.72-.06,8-1.26,8.38-4.6a7.8,7.8,0,0,0-.06-2.09,80.26,80.26,0,0,0,14.22-1.85q-0.43-2.11-1-4.19A77.13,77.13,0,0,1,376.25,378.87Zm-115.2-19.72c1.12-2.9-2.1-6.14-.9-7.4,0.68-.71.51-1.08,1.07-1.07a14.53,14.53,0,0,0,5.49.48c2-.29,1.82-0.6,1.93-3v-7.14c0-6.43.3-7.3,2-5,3.9,5.35,13.1,11.45,17.72,12.87,4.1,2,12,.31,11.93.32,1.45,3.32,4.09,6.13,6.12,9,0.08,0.73-.82.42-0.76,2a10.08,10.08,0,0,0,3.2,5,3.52,3.52,0,0,1,3.49,3.17,7.8,7.8,0,0,0-4.11-2.58c-4.3-.46-8.91,2.43-8.7,3.62-0.81.11-1.63,0.19-2.44,0.26-1.87-2.46-4.51-4.32-6.68-6-4-1.14-7.76-1.9-12.26-3.9A86.15,86.15,0,0,1,268,354.6a20.7,20.7,0,0,0,.49-3.85c-0.53,1.74-2.78,2.68-5.13,2.31,4.86,3.46,7.06,5.68,13.85,8.7a66.8,66.8,0,0,0,10.95,3.79,39.44,39.44,0,0,1,1.64,9.45,61.07,61.07,0,0,1-.08,8c-0.52-.43-1.05-0.84-1.6-1.24h0a25.2,25.2,0,0,0-4.7-2.76,111.47,111.47,0,0,1-22.6-12.77,47.58,47.58,0,0,1-5.55-4.84C255.5,360.61,255.82,356.77,261.06,359.16Zm11.18,64.07a2.33,2.33,0,0,1-.87.55,33.06,33.06,0,0,0-15.14-1.38c-6.7,1-8.08,3.5-12.67,4.18-2.25.33-3.08-.69-4-4.31a26.72,26.72,0,0,1-.44-4.36c2.93-1.22,3-1,6.11-1.68-0.19-3.23-3.64-1.77-6.79-.64a7.18,7.18,0,0,1-.44-2.76h0a3.29,3.29,0,0,1,1.07-1.7,58.38,58.38,0,0,1,10.21-2.56,79.27,79.27,0,0,1,17.15-1.3h0.09c2.28,0,3.43.2,3.93,0.67a4.26,4.26,0,0,1,.75,2.2,13.42,13.42,0,0,0-.05,4.47,36.69,36.69,0,0,0,.84,4.29,24.08,24.08,0,0,0-6.66-1.87c-3.56-.49-14.76.18-16.54,3.56,5.24-1.9,12.09-2,16.26-1.43a20.69,20.69,0,0,1,7.61,2.49A2.2,2.2,0,0,1,272.24,423.23Zm17.86,42c0.19-6.49,3.89-9.84,10.37-9.95,0.62-6.6-6-12.49-9-18.55a40.69,40.69,0,0,0,19-.33,27.16,27.16,0,0,0,3.09-6.23,32.07,32.07,0,0,0,1.12-4.1C295.38,431,281,417.79,278.9,406a16.59,16.59,0,0,1-.26-2.86c0-3,0-6.21,1.86-8.45,0.1-.45-2.13-2.82-2.45-2.33-1,1.49-2.4,4.17-3.72,6.72,0.1-1.22.22-2.3,0.33-3.33a43.12,43.12,0,0,0,.33-9.18c-0.1-1.24-5.31-.61-5.16.25,0.44,2.54,2.69,10.48.78,15.45-9.79-2.22-19.71-.34-28.77,2.51-7-7.08-8.46-25.32-4.58-33.9,1.89-4.19,9.94-7.15,15.11-7.56,1.8,2.42,2.4,3.75,5.85,6.37a116,116,0,0,0,23.51,13.28,20.94,20.94,0,0,1,3.87,2.29h0c2.21,1.61,4.12,3.59,6.38,5.3a71,71,0,0,0,1.14-12.42c2,0.09,3.6.13,5.08,0.08l1.31-.07c0.33,0-1.62-3.88-.3-5,0.24,1.59,2,4.78,2.35,4.72,0.48,0.77,3,3.17,4.09,1.75,3.32-4.35,7.79-.15,8-0.1-0.09.24-2.29-1.18-4-.32-13.67,7,23,18.2,24.3,26h0c5.31,15.61,5.34,37.48,1.75,51.2-1.56,6-3.48,10.24-3.6,16.58C322,473.26,312.11,467.08,290.1,465.19Zm74-61.57c0.08,8.23-1.91,16.24-10.33,19.46-6.95,2.65-9.07-5-10.27-5.44-1-.35-1.76-0.34-3.76.8,1,0.15,2.29.29,2.61,1a15.3,15.3,0,0,0,9.07,8.58l0,0.56c-0.4,6.57-.31,22.56-2.7,32-1.54,6.14-6.49,5.18-7.84,11.12a27.54,27.54,0,0,1-6.59,1.15c0.19-7.22,2.49-11.92,3.57-16.1,3.15-12.19,3.54-30.32.11-45.32,8.48-19.8-1.9-29.42-20.92-35.49-1.07-.34-2.09-0.66-3-1a5.9,5.9,0,0,0,0-3.44,9.56,9.56,0,0,0,1.44-2.9c0.07-.19.14-0.38,0.2-0.57a16.42,16.42,0,0,0,5.87,2l0.42-3.2a14.37,14.37,0,0,1-7.22-3.3q-0.62-.51-1.24-1.09c11.6,4.55,26.12-.38,32.53-9.23a20.92,20.92,0,0,0,6-.28,41.58,41.58,0,0,0-1.63,15.95q0.16,1.61.46,3.16l-0.8-1.84c-24.57,4.9,1.45,19.27,8.11,25.14Q363,399.6,364.11,403.62ZM352.7,378.21a7,7,0,0,0-2.76-.29,13.07,13.07,0,0,0-3.51.67c-0.34-3.35,1-4.23,4.6-5.83A30.8,30.8,0,0,0,352.7,378.21Zm16.52,6.23c-0.43,0-5.87-.09-9.11-0.38l0.22-.25c-3.72-3.33-6.07-8.84-6.69-15.2a38.89,38.89,0,0,1,3.15-19.18c2.11-.14,4.85-0.29,7.5-0.31a16.53,16.53,0,0,0-3.1,5.53,20,20,0,0,0-.74,9.55c2.28-.76.8-2.83,2.79-8.88,1.42-4.3,5.78-8.8,10.44-5.43a9.09,9.09,0,0,1-.91,1.29c-3.3-1.32-6.2,1.49-7.23,4.72a17.51,17.51,0,0,0-.61,5.56A43.05,43.05,0,0,0,371,382.17C372.22,384.6,370.95,384.4,369.22,384.44Z" transform="translate(-108.26 -238.69)"/><path d="M224.34,338.44c-1.15,6.1-.68,10.46.79,13.59q2.38-3.86,5.13-7.46A14.68,14.68,0,0,1,224.34,338.44Z" transform="translate(-108.26 -238.69)"/><path d="M293.5,323.47a3.79,3.79,0,0,0,2,.4c0.21,0-.09-0.93.09-0.88,1.4,0.4,1.54,1.73,3.51,2.27,0.89,0.24,2.21-.7,3-1.68a1.34,1.34,0,0,1-.72,1.28,3.09,3.09,0,0,0,2.09-.53,3.88,3.88,0,0,0-.36-3.9,14.72,14.72,0,0,1-.64-7.1c-1.95,5.92.57,6.48,0.17,9.22-3,2.08-3.87-.51-5.78-0.93a6.08,6.08,0,0,0-2.77.52c-0.4-1.6-.15-2.46.47-2.9-2,.44-2.37,2.65-1,4.23h0Z" transform="translate(-108.26 -238.69)"/><path d="M295.22,303.06c1.08,0.65,1.52,1.62,1.78-.5,0.17-1.37.42-2,0-2.57-6.74-8.64-17-7-19.66-3.05C285.76,291.85,290.36,300.13,295.22,303.06Z" transform="translate(-108.26 -238.69)"/><path d="M284.68,301.26c-3.34.34-6.23,0.56-7.63-1,0.36,1.95,1.12,3.45,3.67,3.67a3.59,3.59,0,0,0,2.77,3.13c-0.69-1-1.3-2.2-.66-3.54a5.3,5.3,0,0,1,1.84-.61c-0.81,1.29-.55,3.56.59,4.31a10.24,10.24,0,0,1,4.41.94,3,3,0,0,0,1.93-3.57,4.84,4.84,0,0,1-1.13,1.87,2.42,2.42,0,0,1-3.26.21c1.74,0.59,3.41-1.33,3-3.2,1.84,0.7,3.18,1.93,2.94,3.72a1.57,1.57,0,0,1-1.41,1.5c0.72,0.19,1.19.36,1.57,0.46l1.33-.11a1.13,1.13,0,0,0,.09-0.48C295,302.34,289.85,300.73,284.68,301.26Zm2.44,3.25a0.73,0.73,0,1,1-.48-1A0.78,0.78,0,0,1,287.12,304.51Z" transform="translate(-108.26 -238.69)"/><path d="M283,327a4.8,4.8,0,0,0,2.1.39c1.09,0.69,1.93,5.14,3.24,7,3.76,5.31,11.07,6.82,14.73.78,0.93-1.53,1-4.57,2.53-5.67,1.3,0.13,2.46-.82,1.62-2.74-1,2.54-3.93.48-5.71,0.52a7,7,0,0,0-3.22.78q-0.84-1-4-1.5a57.3,57.3,0,0,0-8.2-.4h0c-2.2-.06-2.69-0.94-2.91-1.9a1.34,1.34,0,0,0-1.11,1.14A1.32,1.32,0,0,0,283,327Zm9,2.32a12.21,12.21,0,0,1,3.87,1.31,4.15,4.15,0,0,0,2,.64h0a10.92,10.92,0,0,0,1.59-.41,7.14,7.14,0,0,1,2.22-.45h0.62a6.25,6.25,0,0,1-1,2c-3.06,4-7.54,2.31-10.78-.81a12,12,0,0,1-2.45-3.35A23.1,23.1,0,0,0,292,329.32Z" transform="translate(-108.26 -238.69)"/><path d="M303.7,310.83a5.66,5.66,0,0,0,2.13.15,1.54,1.54,0,0,1-.64-1.85,3,3,0,0,1,.15-0.4l-1.36,0a10.52,10.52,0,0,0-.48,1.31C303.35,310.53,303.37,310.67,303.7,310.83Z" transform="translate(-108.26 -238.69)"/><path d="M318.83,424.74c-0.16,1.91-1.41,4.1-3.11,7.43a44.39,44.39,0,0,1-6,9l1.09,1c2.49-1.38,6.8-4.58,8.58-8.06,0.26-.51.51-1,0.75-1.53l0.7-.42c6.2-3.78,10.9-7,13.82-14.56l-1.88-9.06C329.86,416.1,326.66,421.59,318.83,424.74Z" transform="translate(-108.26 -238.69)"/><path d="M307.07,310.89a8,8,0,0,1,4.39.54,4.17,4.17,0,0,0,1.54-2.17l-1.48-.16a1.87,1.87,0,0,1-2.34,1,1.74,1.74,0,0,0,1.57-1.06c-0.87-.08-1.74-0.15-2.61-0.2a0.46,0.46,0,0,1-.17,0,0.48,0.48,0,0,1-.27-0.08c-0.57,0-1.14,0-1.71-.06A2.12,2.12,0,0,0,307.07,310.89Z" transform="translate(-108.26 -238.69)"/><path d="M294.14,309.26a0.49,0.49,0,0,0,.45-0.22l-1.33.11A2.35,2.35,0,0,0,294.14,309.26Z" transform="translate(-108.26 -238.69)"/><polygon points="196.26 38.07 194.74 32.82 192.91 37.97 187.44 37.8 191.78 41.13 189.93 46.28 194.44 43.18 198.76 46.53 197.21 41.29 201.73 38.21 196.26 38.07"/></svg>