<svg id="Layer_1" data-name="Layer 1" xmlns="http://www.w3.org/2000/svg" viewBox="0 0 502.58 86.28"><defs><style>.cls-1{fill:#231f20;}.cls-2,.cls-3{fill:#ed1c24;}.cls-2,.cls-6{fill-rule:evenodd;}.cls-4{fill:none;}.cls-5{fill:#2f7de1;}.cls-6{fill:#fff;}</style></defs><title>logo</title><path class="cls-1" d="M157.8,543.09a15.63,15.63,0,0,1,4.4-11.18,14.6,14.6,0,0,1,21.32,0,15.63,15.63,0,0,1,4.4,11.18v5.67H177.86v-5.67A6,6,0,0,0,176.4,539a4.58,4.58,0,0,0-7.08,0,6,6,0,0,0-1.45,4.06V586a6,6,0,0,0,1.45,4.06,4.58,4.58,0,0,0,7.08,0,6,6,0,0,0,1.45-4.06v-5.67h10.06V586a15.63,15.63,0,0,1-4.4,11.18,14.6,14.6,0,0,1-21.32,0A15.63,15.63,0,0,1,157.8,586V543.09Z" transform="translate(-37.85 -518.94)"/><path class="cls-1" d="M192.51,543.09a15.63,15.63,0,0,1,4.4-11.18,14.6,14.6,0,0,1,21.32,0,15.63,15.63,0,0,1,4.4,11.18v57.33H212.56V590.35h-10v10.06H192.51V543.09Zm20.05,37.28V543.09a6,6,0,0,0-1.45-4.06,4.58,4.58,0,0,0-7.08,0,6,6,0,0,0-1.45,4.06v37.28h10Z" transform="translate(-37.85 -518.94)"/><path class="cls-1" d="M242.2,554.5a14.17,14.17,0,0,1,10.66,4.62,15.63,15.63,0,0,1,4.4,11.18V586a15.63,15.63,0,0,1-4.4,11.18,14.6,14.6,0,0,1-21.32,0,15.63,15.63,0,0,1-4.4-11.18v-5.67h10.06V586a6,6,0,0,0,1.45,4.06,4.58,4.58,0,0,0,7.08,0A6,6,0,0,0,247.2,586V570.3a6,6,0,0,0-1.45-4.06,4.52,4.52,0,0,0-3.54-1.68,14.16,14.16,0,0,1-10.66-4.62,15.63,15.63,0,0,1-4.4-11.18v-5.67a15.63,15.63,0,0,1,4.4-11.18,14.6,14.6,0,0,1,21.32,0,15.63,15.63,0,0,1,4.4,11.18v5.67H247.2v-5.67a6,6,0,0,0-1.45-4.06,4.58,4.58,0,0,0-7.08,0,6,6,0,0,0-1.45,4.06v5.67a6,6,0,0,0,1.45,4.06A4.52,4.52,0,0,0,242.2,554.5Z" transform="translate(-37.85 -518.94)"/><path class="cls-1" d="M261.85,528.7h10.06v71.72H261.85V528.7Z" transform="translate(-37.85 -518.94)"/><path class="cls-1" d="M278,527.28L298,554.94V528.7h10.06v71.72H298V572l-10-13.87v42.27H278V527.28Z" transform="translate(-37.85 -518.94)"/><path class="cls-1" d="M312.66,543.09a15.63,15.63,0,0,1,4.4-11.18,14.6,14.6,0,0,1,21.32,0,15.63,15.63,0,0,1,4.4,11.18V586a15.63,15.63,0,0,1-4.4,11.18,14.6,14.6,0,0,1-21.32,0,15.63,15.63,0,0,1-4.4-11.18V543.09Zm10.07,0V586a6,6,0,0,0,1.45,4.06,4.58,4.58,0,0,0,7.08,0,6,6,0,0,0,1.45-4.06V543.09a6,6,0,0,0-1.45-4.06,4.58,4.58,0,0,0-7.08,0A6,6,0,0,0,322.73,543.09Z" transform="translate(-37.85 -518.94)"/><path class="cls-1" d="M385.87,528.7a14.28,14.28,0,0,1,10.29,4.81,15.61,15.61,0,0,1,4.25,11v30.12a15.54,15.54,0,0,1-4.4,11.11,14.17,14.17,0,0,1-10.66,4.62h-5v10.06H370.29V528.7h15.58Zm-5.52,10.06v41.6h5a4.48,4.48,0,0,0,3.54-1.71,6,6,0,0,0,1.46-4V544.51a6,6,0,0,0-1.46-4.06,4.52,4.52,0,0,0-3.54-1.68h-5Z" transform="translate(-37.85 -518.94)"/><path class="cls-1" d="M405,528.7h10.06v71.72H405V528.7Z" transform="translate(-37.85 -518.94)"/><path class="cls-1" d="M421.1,528.7h10.07v61.65h15.06v10.06H421.1V528.7Z" transform="translate(-37.85 -518.94)"/><path class="cls-1" d="M448.8,543.09a15.63,15.63,0,0,1,4.4-11.18,14.6,14.6,0,0,1,21.32,0,15.63,15.63,0,0,1,4.4,11.18V586a15.63,15.63,0,0,1-4.4,11.18,14.6,14.6,0,0,1-21.32,0A15.63,15.63,0,0,1,448.8,586V543.09Zm10.07,0V586a6,6,0,0,0,1.45,4.06,4.58,4.58,0,0,0,7.08,0,6,6,0,0,0,1.45-4.06V543.09A6,6,0,0,0,467.4,539a4.58,4.58,0,0,0-7.08,0A6,6,0,0,0,458.87,543.09Z" transform="translate(-37.85 -518.94)"/><path class="cls-1" d="M507.18,528.7v10.06h-7.53v61.65H489.58V538.77h-7.53V528.7h25.12Z" transform="translate(-37.85 -518.94)"/><path class="cls-1" d="M525.38,554.5A14.17,14.17,0,0,1,536,559.12a15.63,15.63,0,0,1,4.4,11.18V586a15.63,15.63,0,0,1-4.4,11.18,14.6,14.6,0,0,1-21.32,0,15.63,15.63,0,0,1-4.4-11.18v-5.67h10.07V586a6,6,0,0,0,1.45,4.06,4.58,4.58,0,0,0,7.08,0,6,6,0,0,0,1.46-4.06V570.3a6,6,0,0,0-1.46-4.06,4.52,4.52,0,0,0-3.54-1.68,14.17,14.17,0,0,1-10.66-4.62,15.63,15.63,0,0,1-4.4-11.18v-5.67a15.63,15.63,0,0,1,4.4-11.18,14.6,14.6,0,0,1,21.32,0,15.63,15.63,0,0,1,4.4,11.18v5.67H530.37v-5.67a6,6,0,0,0-1.46-4.06,4.58,4.58,0,0,0-7.08,0,6,6,0,0,0-1.45,4.06v5.67a6,6,0,0,0,1.45,4.06A4.52,4.52,0,0,0,525.38,554.5Z" transform="translate(-37.85 -518.94)"/><path class="cls-2" d="M54.33,588.77c-1.66,3.61,2.06,6,5.26,3.09,1.76-1.62,1.38-4.09,1.1-5.7s-0.47-2.68-.18-3.15c-0.48.27-1.74,0-3.3-.23s-4.26-.74-6,0.9c-3.17,3-.55,6.53,3.12,5.09" transform="translate(-37.85 -518.94)"/><polygon class="cls-3" points="19.59 37.54 11.83 40.73 6.54 33.78 14.75 30.73 19.59 37.54"/><path class="cls-1" d="M60.23,545.68a4,4,0,0,0,.92-4.39,5.76,5.76,0,0,1,1.74,4.39,35.22,35.22,0,0,1,2.91-3.43,7.11,7.11,0,0,1-4.17-1.35,4.43,4.43,0,0,0,4.25-1.1,3.92,3.92,0,0,0,0-5.72,4.38,4.38,0,0,0-6,.17c-0.05.05-.09,0.11-0.14,0.16a3.91,3.91,0,0,0-.57-0.67,4.38,4.38,0,0,0-6,.17,3.92,3.92,0,0,0,0,5.72,4.06,4.06,0,0,0,.92.62,3.91,3.91,0,0,0,.12,5.61,4.38,4.38,0,0,0,6-.17m-0.91-6.39,0.07,0.1-0.11-.05,0,0" transform="translate(-37.85 -518.94)"/><path class="cls-1" d="M56.55,574.82a33.26,33.26,0,0,1-.53-5.69c0-.57.06-1.13,0.09-1.7a8.16,8.16,0,0,1-5.63,4.08c3.89-2.6,2.26-7.69-3.52-7.22-3.37.27-4.07,3.17-5.33,5.12A10.81,10.81,0,0,1,37.85,573,10,10,0,0,1,42.21,576c1.52,1.74,2.85,4.43,6.21,4.12,5.88-.55,6.68-6,1.91-7.81a7.58,7.58,0,0,1,6.22,2.56" transform="translate(-37.85 -518.94)"/><path class="cls-2" d="M138.1,583.68c-1.74-1.64-4.29-1.16-6-.9s-2.82.5-3.3,0.23c0.29,0.47.09,1.58-.18,3.15s-0.66,4.08,1.1,5.7c3.2,2.94,6.92.52,5.26-3.09,3.67,1.44,6.29-2.1,3.12-5.09" transform="translate(-37.85 -518.94)"/><polygon class="cls-3" points="97.27 35.89 105.02 39.09 110.31 32.14 102.11 29.08 97.27 35.89"/><path class="cls-1" d="M135.12,541.82a3.91,3.91,0,0,0,.12-5.61,4.06,4.06,0,0,0,.92-0.62,3.92,3.92,0,0,0,0-5.72,4.38,4.38,0,0,0-6-.17,3.86,3.86,0,0,0-.57.67c0-.05-0.08-0.11-0.14-0.16a4.38,4.38,0,0,0-6-.17,3.92,3.92,0,0,0,0,5.72,4.43,4.43,0,0,0,4.25,1.1,7.12,7.12,0,0,1-4.17,1.35,35.23,35.23,0,0,1,2.91,3.43,5.76,5.76,0,0,1,1.74-4.39,4,4,0,0,0,.92,4.39,4.38,4.38,0,0,0,6,.17m-5-6.51-0.11.05,0.07-.1,0,0" transform="translate(-37.85 -518.94)"/><path class="cls-1" d="M131.8,575.13a33.21,33.21,0,0,0,.53-5.69c0-.57-0.06-1.13-0.09-1.7a8.17,8.17,0,0,0,5.63,4.08c-3.89-2.6-2.26-7.69,3.52-7.22,3.37,0.27,4.08,3.17,5.33,5.12a10.81,10.81,0,0,0,3.78,3.62,10,10,0,0,0-4.36,2.93c-1.52,1.74-2.84,4.43-6.21,4.12-5.88-.55-6.68-6-1.91-7.81a7.58,7.58,0,0,0-6.22,2.56" transform="translate(-37.85 -518.94)"/><path class="cls-1" d="M69.92,594.74c-1.94.59-3.32,1.13-3.32,1.13-5.68,1.77-18.25.64-18.25,0.64,1.55,1.87,11.36,3.6,11.36,3.6-4.4,1.73-18.33-2.37-18.33-2.37s10.55,11,23.76,6.37a47.28,47.28,0,0,1,16.41-2.55,36.55,36.55,0,0,1-11.63-6.81" transform="translate(-37.85 -518.94)"/><path class="cls-1" d="M118.74,594.74c1.94,0.59,3.32,1.13,3.32,1.13,5.68,1.77,18.25.64,18.25,0.64-1.55,1.87-11.36,3.6-11.36,3.6,4.4,1.73,18.33-2.37,18.33-2.37s-10.55,11-23.76,6.37a47.28,47.28,0,0,0-16.41-2.55,36.55,36.55,0,0,0,11.63-6.81" transform="translate(-37.85 -518.94)"/><path class="cls-4" d="M94.12,595.74c12.81,0,23.59-8.24,26.88-19.47H67.24C70.53,587.49,81.31,595.74,94.12,595.74Z" transform="translate(-37.85 -518.94)"/><path class="cls-5" d="M94.6,540.9c-16.52,0-29.91,12.79-29.91,28.56S78.08,598,94.6,598s29.91-12.79,29.91-28.56S111.12,540.9,94.6,540.9" transform="translate(-37.85 -518.94)"/><path class="cls-1" d="M61.24,569.67c0,17.62,15,31.91,33.41,31.91s33.41-14.29,33.41-31.91-15-31.91-33.41-31.91S61.24,552,61.24,569.67m2.23,0c0-16.45,14-29.78,31.19-29.78s31.19,13.33,31.19,29.78-14,29.78-31.19,29.78-31.19-13.33-31.19-29.78" transform="translate(-37.85 -518.94)"/><path class="cls-6" d="M85.35,524.57c-0.83.53-8.73,15.59-8.75,16s0.78,8.53.78,8.53l-0.48,6.24-5.13,3.33a44.6,44.6,0,0,0-.39,4.51c0.1,0.67.48,11.62,0.7,12.07s1.85,3.92,1.85,3.92,2.23,6.8,2.19,7.91a6.38,6.38,0,0,0,.89,2.66l-0.61,3c6.67,3.84,6.32,3.6,7.39,4,0.17,0.06.49-3.42,1-3.4,0.62,0-1.19-6.84-.18-6.89,0.34,0,.2-11,0.88-9.24,0.49,1.22,5.55,1.88,5.28,5.71-0.35,5-3.2,12-2.82,11.93,6.57-.51,17.13-0.39,17.13-0.39l3.4-2.13,2.35-4.93,1.29-9.07,4.81-7.06-4.74-5.06-2-2.16,4.65,1.61,3.17-.56,1.41-1.12,9.74-2.69,4.93-4.26-0.35-3.36-5.4-6.39-12.08-6.39-5.86-5-3.79-2-6.88-2.51-0.57,4.18,4.57,2,3.26,3.07,4.78,2.56,2,0.28,5.16,4.7,3.64,6.83-2.39-.09-2.3-1.81L117,553h-4.28s-1.16-.17-1.17.16a3.58,3.58,0,0,1-1.06,1.12l-5.87-1.5-4.75.2,0.76-6.2,1.29-6-4.46-5.49,2.82-6-2.7-5.49-7.62-4.14Z" transform="translate(-37.85 -518.94)"/><path class="cls-4" d="M96.51,541H96.37l0.09,0Z" transform="translate(-37.85 -518.94)"/><path class="cls-4" d="M89.45,539.28a0.26,0.26,0,0,0-.3.19,0.24,0.24,0,0,0,.16.31,0.26,0.26,0,0,0,.3-0.19A0.24,0.24,0,0,0,89.45,539.28Z" transform="translate(-37.85 -518.94)"/><path class="cls-4" d="M96.85,541.35a0.63,0.63,0,0,0,.77-0.31l-0.25,0A0.57,0.57,0,0,1,96.85,541.35Z" transform="translate(-37.85 -518.94)"/><path class="cls-4" d="M91.1,540.9a0.5,0.5,0,0,0,.46-0.47,1.16,1.16,0,0,0-1-1.17,0.81,0.81,0,0,1-1,1,0.82,0.82,0,0,0,1.07-.07,1.51,1.51,0,0,0,.37-0.59,0.93,0.93,0,0,1-.63,1.12,3.5,3.5,0,0,0-1.45-.29,1.07,1.07,0,0,1-.19-1.35,1.8,1.8,0,0,0-.6.19,1,1,0,0,0,.22,1.11,1.14,1.14,0,0,1-.91-1,1.2,1.2,0,0,1-1.21-1.15c0.46,0.49,1.41.42,2.51,0.31,1.7-.17,3.38.34,3.28,2.29a0.34,0.34,0,0,1,0,.15c0.88-.07,1.76-0.12,2.66-0.12h0.42c0.69-1.49,2.23-1.48,3.42-.9a5.18,5.18,0,0,0,.58.25,2.56,2.56,0,0,0,.22-1.92c-1.32-.25-2.73.94-3.87,1.27-0.35.1-.57,0.35-0.41-0.31a1.28,1.28,0,0,1,.28-0.77,4.09,4.09,0,0,1,3.62-.87c-1.45-1.66-5.21,1.56-9.49-4.38a7.63,7.63,0,0,0-1.95-2.78A9,9,0,0,1,89,533.25c-0.33,2.44-4.14,3.81-3.93,5.92l-0.34,2.14c-0.66.13-.61-0.1-0.83-0.86-0.48-1.66-1.88-.8-2.79-1.58,0.1,2.26.54,4.14,2,4.17,0,0,0,.06,0,0.08A30.86,30.86,0,0,1,91.62,541Zm1.74-2.73a1,1,0,0,1,0,.8c-0.09.66-.23,0.36-0.59,0.16-1.6-.92-3.11-3.52-5.88-1.92C87.27,536,90.63,535.46,92.84,538.17Z" transform="translate(-37.85 -518.94)"/><path class="cls-4" d="M83.77,546.56a28,28,0,0,0,4,4.12c2.28,2.18,6,3.76,7.39,0,1.29-3.44,5.1-4.93,3.5-9v0a0.88,0.88,0,0,1-.64.19,1.46,1.46,0,0,0,.52-0.72l-0.47-.06a1.32,1.32,0,0,1-.51.68,2.76,2.76,0,0,0-1.44-.17,0.66,0.66,0,0,1-.35-0.67H95.59a0.91,0.91,0,0,0,0,.13,0.47,0.47,0,0,0,.21.58,1.94,1.94,0,0,1-.7,0c-0.11-.05-0.12-0.1-0.07-0.26a3.21,3.21,0,0,1,.16-0.41H94.72c-0.9,0-1.79,0-2.66.12a0.16,0.16,0,0,1-.15.07,0.81,0.81,0,0,1-.29,0,30.86,30.86,0,0,0-8.48,2.07A5.65,5.65,0,0,0,83.77,546.56ZM92,544.21a0.76,0.76,0,0,0-.16.91,2.08,2.08,0,0,1,.91-0.16c0.63,0.13.92,0.94,1.9,0.29,0.13-.86-0.7-1-0.06-2.89a4.42,4.42,0,0,0,.21,2.23,1.17,1.17,0,0,1,.12,1.22,1,1,0,0,1-.69.17,0.42,0.42,0,0,0,.24-0.4,1.19,1.19,0,0,1-1,.53,9.7,9.7,0,0,1-1.15-.71c-0.06,0,0,.27,0,0.28a1.3,1.3,0,0,1-.65-0.12h0A0.75,0.75,0,0,1,92,544.21ZM88,546.14a0.43,0.43,0,0,1,.36-0.36,0.8,0.8,0,0,0,1,.6h0a19.7,19.7,0,0,1,2.7.12,2.19,2.19,0,0,1,1.31.47,2.37,2.37,0,0,1,1.06-.24c0.58,0,1.56.63,1.88-.16a0.54,0.54,0,0,1-.53.86c-0.52.35-.53,1.3-0.83,1.78-1.2,1.89-3.6,1.42-4.84-.24-0.43-.58-0.71-2-1.06-2.2a1.64,1.64,0,0,1-.69-0.12A0.41,0.41,0,0,1,88,546.14Z" transform="translate(-37.85 -518.94)"/><path class="cls-4" d="M76.86,550.34c-0.6.86-2.46,2.05-3.93,0.92,2-1,2.34-2,2.35-3.5a29.34,29.34,0,0,0-4.37,4.41A4.25,4.25,0,0,0,76.86,550.34Z" transform="translate(-37.85 -518.94)"/><path class="cls-4" d="M104.54,547.54c-0.23,1.21-.51,2.11.34,3.12a2.78,2.78,0,0,1-2.11-1.25c0.53,3.17,6,3,5-.82,2.14,1.1,2.18,4,1.78,5.24,0.12,0,.91-0.11,1-0.12a1.87,1.87,0,0,1,1.35-1.35,20.81,20.81,0,0,1,2.16.12c1.93,0,4.74-.75,5.35,1.72H120A29.87,29.87,0,0,0,102.82,542a0.35,0.35,0,0,0,0,.13C102.8,543.16,105.32,543.53,104.54,547.54Z" transform="translate(-37.85 -518.94)"/><path class="cls-4" d="M94.25,548.34a1.93,1.93,0,0,0,.34-0.63h-0.2a2.44,2.44,0,0,0-.73.14,3.72,3.72,0,0,1-.52.13h0a1.41,1.41,0,0,1-.66-0.2,4.14,4.14,0,0,0-1.27-.41,7.87,7.87,0,0,1-1.28-.34,3.76,3.76,0,0,0,.81,1.05C91.78,549.07,93.25,549.59,94.25,548.34Z" transform="translate(-37.85 -518.94)"/><path class="cls-4" d="M118.78,555.57a4.1,4.1,0,0,0-1.67.49,3.26,3.26,0,0,0-.19,1.36c0.06,2.26,1.26,4,2,5.5a26.48,26.48,0,0,0,4.81-.56,27.62,27.62,0,0,0-2.8-6.72A8.88,8.88,0,0,0,118.78,555.57Z" transform="translate(-37.85 -518.94)"/><path class="cls-4" d="M96.65,540.7a0.21,0.21,0,1,0-.4,0,0.27,0.27,0,0,0,.12.23h0.14A0.25,0.25,0,0,0,96.65,540.7Z" transform="translate(-37.85 -518.94)"/><path class="cls-4" d="M95.85,540.5a1,1,0,0,0-.26.41h0.22A1.71,1.71,0,0,1,95.85,540.5Z" transform="translate(-37.85 -518.94)"/><path class="cls-4" d="M120,554.2a12.94,12.94,0,0,1,1.92.25c-2.77-4.13-8.52-10.51-10-10.35-1.32.18-2.74-.2-5-3.32a39,39,0,0,0-3.44-2.58,4.67,4.67,0,0,1-.66,3.76A29.87,29.87,0,0,1,120,554.2Z" transform="translate(-37.85 -518.94)"/><path class="cls-4" d="M97.78,540.32l-0.34-.09a1,1,0,0,1-.06.78l0.25,0A1.07,1.07,0,0,0,97.78,540.32Z" transform="translate(-37.85 -518.94)"/><polygon class="cls-4" points="61.13 18.7 61.12 18.7 61.12 18.7 61.13 18.7"/><path class="cls-4" d="M75.14,584.59c-0.37-1.32-.73-2.76-1.14-4.6H73.67c-1.32-.15-2.17-1.77-2.46-2.88a6.9,6.9,0,0,1-.19-1.38,3.33,3.33,0,0,1-.43-2,2.32,2.32,0,0,1,.47-1.05,59.93,59.93,0,0,1-.94-7,14.44,14.44,0,0,1,1-6.08,5.78,5.78,0,0,1,3-2.63c-2-.06-4-0.54-4.94-2.37a27.47,27.47,0,0,0-4.43,15A28,28,0,0,0,76,591.74c0.13-1,.27-2,0.45-3C76,587.28,75.54,586,75.14,584.59Z" transform="translate(-37.85 -518.94)"/><path class="cls-4" d="M128.25,560.74a20.62,20.62,0,0,0,3.17-2.1c1.34-1.11,2.38-2.42,1.63-3.44a56.6,56.6,0,0,0-3.94-5,18.81,18.81,0,0,0-6.11-4.52l0,0,0,0q-6.35-3.82-10-6.35a23.18,23.18,0,0,1-4.44-3.69l-0.83-.25c-1-.26-1.75-0.86-3-1.26a33.3,33.3,0,0,1-4.23-1.13L100,532.7c-0.57.11,0,.89,0.23,1.08-0.63.92,1,1.39,1.91,2-0.18.17-.3,0.55,0.46,0.78a10,10,0,0,1,4.64,2.41c2.21,3.12,3.63,3.5,5,3.32,2-.21,11,10.16,11.59,13.39h0a2,2,0,0,0,.55.53c1.48,1,2.11.49,1.88,1.8a5.94,5.94,0,0,1-2.69-.7,3.14,3.14,0,0,1-1.17-1.36,13.42,13.42,0,0,0-1.38-.27,27.62,27.62,0,0,1,2.8,6.72A17.41,17.41,0,0,0,128.25,560.74Z" transform="translate(-37.85 -518.94)"/><path class="cls-4" d="M98.6,540.85a1.4,1.4,0,0,0-.5-0.39,0.88,0.88,0,0,1,0,.62l0.47,0.06A1,1,0,0,0,98.6,540.85Z" transform="translate(-37.85 -518.94)"/><path class="cls-4" d="M89.71,586a7.17,7.17,0,0,0-.9-4.25,7.72,7.72,0,0,0-3-2.75,12.92,12.92,0,0,1-.4,4.38,15.24,15.24,0,0,0-.29,6.52,18.43,18.43,0,0,1,.36,6.75l0.12,0c1-2.9,2.75-5.58,2.79-6.26C87.54,589.31,88.84,587,89.71,586Z" transform="translate(-37.85 -518.94)"/><path class="cls-4" d="M91.22,525.07A14,14,0,0,0,95.91,527v0A3.82,3.82,0,0,0,97,524.33a6,6,0,0,0-2.15-1.71,17.47,17.47,0,0,0-4.29-1.43,6,6,0,0,0-2.31,1.19A13,13,0,0,0,91.22,525.07Z" transform="translate(-37.85 -518.94)"/><path class="cls-4" d="M113,568.1c-2.19-1.84-10.73-6.35-2.66-7.89l0.26,0.58q-0.1-.49-0.15-1a12.49,12.49,0,0,1,.54-5,7.19,7.19,0,0,1-2,.09,9.91,9.91,0,0,1-10.69,2.9l0.41,0.34a4.83,4.83,0,0,0,2.37,1l-0.14,1a5.57,5.57,0,0,1-1.93-.62l-0.06.18a3,3,0,0,1-.47.91,1.77,1.77,0,0,1,0,1.08l1,0.31c6.25,1.9,9.66,4.92,6.87,11.13a31.49,31.49,0,0,1,0,14.22,17.68,17.68,0,0,0-1.17,5.05,9.43,9.43,0,0,0,2.16-.36c0.45-1.86,2.07-1.56,2.58-3.49,0.78-3,.76-8,0.89-10.05v-0.18a5,5,0,0,1-3-2.69,1.15,1.15,0,0,0-.86-0.32,1.35,1.35,0,0,1,1.24-.25c0.39,0.13,1.09,2.54,3.37,1.71,2.76-1,3.42-3.52,3.39-6.1A5.7,5.7,0,0,0,113,568.1Z" transform="translate(-37.85 -518.94)"/><path class="cls-4" d="M98.18,526.06a4.87,4.87,0,0,1-1.94,2.21c-2.6,1.64-6.77,1.63-9.44,1.09,1.27,1.22,5,4.85,8.5,4.77a9.45,9.45,0,0,0,4.3-3.66c-0.3-.69-0.6-1.37-0.85-2.05A9,9,0,0,1,98.18,526.06Zm-2,7.49-1.42-1.05-1.48,1,0.61-1.61-1.42-1,1.8,0.05,0.6-1.62,0.5,1.65,1.8,0-1.48,1Z" transform="translate(-37.85 -518.94)"/><path class="cls-4" d="M93.54,528.28a7.41,7.41,0,0,0,.87-0.3,14.92,14.92,0,0,1-4-1.84,14.27,14.27,0,0,1-3.09-2.77,14,14,0,0,0-2.15,3.92c0.6,1,2,1.38,3.54,1.48A15.37,15.37,0,0,0,93.54,528.28Z" transform="translate(-37.85 -518.94)"/><path class="cls-4" d="M77,576c0.59-1.06,4.27-1.27,5.43-1.12a8.2,8.2,0,0,1,2.19.59,11.05,11.05,0,0,1-.28-1.35,4,4,0,0,1,0-1.4,1.3,1.3,0,0,0-.25-0.69,2.15,2.15,0,0,0-1.29-.21h0a27.24,27.24,0,0,0-5.63.41,19.92,19.92,0,0,0-3.35.8,1,1,0,0,0-.35.53h0a2.16,2.16,0,0,0,.14.87c1-.36,2.17-0.81,2.23.2a7.86,7.86,0,0,0-2,.53,8,8,0,0,0,.14,1.37c0.3,1.14.57,1.46,1.31,1.35,1.51-.21,2-1,4.16-1.31a11.35,11.35,0,0,1,5,.43,0.77,0.77,0,0,0,.29-0.17,0.67,0.67,0,0,0,.14-0.5,7,7,0,0,0-2.5-.78A13,13,0,0,0,77,576Z" transform="translate(-37.85 -518.94)"/><path class="cls-4" d="M105,571.19h0c-0.42-2.45-12.47-6-8-8.16a2.29,2.29,0,0,1,1.3.1c-0.06,0-1.53-1.33-2.62,0-0.35.44-1.19-.31-1.34-0.55a3.33,3.33,0,0,1-.77-1.48c-0.43.34,0.21,1.55,0.1,1.56l-0.43,0c-0.48,0-1,0-1.67,0a21.3,21.3,0,0,1-.38,3.9c-0.74-.54-1.37-1.16-2.1-1.66h0a7,7,0,0,0-1.27-.72A38.62,38.62,0,0,1,80.11,560a7.36,7.36,0,0,1-1.92-2c-1.7.13-4.34,1.06-5,2.37-1.27,2.69-.81,8.41,1.51,10.64a19,19,0,0,1,9.45-.79c0.63-1.56-.11-4.05-0.26-4.85,0-.27,1.66-0.47,1.69-0.08a12.93,12.93,0,0,1-.11,2.88c0,0.32-.08.66-0.11,1,0.43-.8.91-1.64,1.22-2.11a1.33,1.33,0,0,1,.8.73,3.89,3.89,0,0,0-.61,2.65,5,5,0,0,0,.08.9c0.68,3.71,5.41,7.84,11.78,6.29a9.71,9.71,0,0,1-.37,1.29,8.37,8.37,0,0,1-1,2,14,14,0,0,1-6.25.1c1,1.9,3.15,3.75,2.95,5.82-2.13,0-3.34,1.08-3.41,3.12,7.23,0.59,10.48,2.53,13.8,2.45a19.59,19.59,0,0,1,1.18-5.2A30.18,30.18,0,0,0,105,571.19Zm-4.3,8.44-0.23.13-0.25.48a7.5,7.5,0,0,1-2.82,2.53L97,582.46a13.9,13.9,0,0,0,2-2.82,7.41,7.41,0,0,0,1-2.33c2.57-1,3.63-2.71,4.59-5.09l0.62,2.84C104.27,577.42,102.73,578.44,100.69,579.63Z" transform="translate(-37.85 -518.94)"/><path class="cls-4" d="M83.41,590.34l0-.05v0a16.55,16.55,0,0,1,.28-7.22A10.36,10.36,0,0,0,84,578.8H83.86l0-.21a9.63,9.63,0,0,0-7.15.52,9.74,9.74,0,0,0,.15,5c0.41,1.46.84,2.75,1.37,4.26l0.07,0.2,0,0.21c-0.25,1.39-.43,2.75-0.59,4.09A30.32,30.32,0,0,0,83.77,596,15.53,15.53,0,0,0,83.41,590.34Z" transform="translate(-37.85 -518.94)"/><path class="cls-4" d="M119.36,564.91c-0.13,1-1.86,1.42-2.75,1.44q-0.9,0-2.41-.1l0.26,0.21a7.6,7.6,0,0,1,2.69,3.83l0,0.12v0.12c0.06,3.27-.89,6.47-4.17,8a81,81,0,0,1-1,10c-0.44,2.3-2.73,2.38-2.76,4.16a16.27,16.27,0,0,1,0,1.73,28.37,28.37,0,0,0,15.33-24.94,27.44,27.44,0,0,0-.61-5.79,27.54,27.54,0,0,1-4.67.58A2.34,2.34,0,0,1,119.36,564.91Z" transform="translate(-37.85 -518.94)"/><path class="cls-4" d="M115.16,557.46a5.26,5.26,0,0,1,.2-1.74,1.93,1.93,0,0,1,2.38-1.48,2.86,2.86,0,0,0,.3-0.4c-1.53-1.06-3,.35-3.43,1.7-0.66,1.9-.17,2.55-0.92,2.79a6,6,0,0,1,.24-3,5.13,5.13,0,0,1,1-1.73c-0.87,0-1.77.05-2.46,0.1a11.71,11.71,0,0,0-1,6,7.18,7.18,0,0,0,2.2,4.77l-0.07.08c1.07,0.09,2.85.12,3,.12,0.57,0,1,.05.58-0.71A13.06,13.06,0,0,1,115.16,557.46Z" transform="translate(-37.85 -518.94)"/><path class="cls-4" d="M109.09,562.83a4.47,4.47,0,0,1,1.15-.21,2.38,2.38,0,0,1,.91.09,9.35,9.35,0,0,1-.55-1.71C109.41,561.5,109,561.78,109.09,562.83Z" transform="translate(-37.85 -518.94)"/><path class="cls-4" d="M88.39,563a8.38,8.38,0,0,1,1.54.86h0l0.52,0.39a18.3,18.3,0,0,0,0-2.51,11.87,11.87,0,0,0-.54-3,22.65,22.65,0,0,1-3.6-1.19,21.08,21.08,0,0,1-4.55-2.73,1.47,1.47,0,0,0,1.68-.73,6.22,6.22,0,0,1-.16,1.21,28.81,28.81,0,0,0,3.31,1.63,28.48,28.48,0,0,0,4,1.22,11.56,11.56,0,0,1,2.2,1.89l0.8-.08c-0.07-.37,1.45-1.28,2.86-1.14a2.58,2.58,0,0,1,1.35.81,1.13,1.13,0,0,0-1.15-1,3.14,3.14,0,0,1-1.05-1.57,1.53,1.53,0,0,1,.25-0.62,17.69,17.69,0,0,1-2-2.84s-2.57.52-3.92-.1a14.76,14.76,0,0,1-5.82-4c-0.55-.72-0.65-0.44-0.65,1.57v2.24c0,0.74,0,.83-0.64.93a5,5,0,0,1-1.8-.15c-0.18,0-.13.11-0.35,0.34-0.39.4,0.67,1.41,0.3,2.32-1.72-.75-1.82.46-1.9,0.7A15.44,15.44,0,0,0,81,559,37.11,37.11,0,0,0,88.39,563Z" transform="translate(-37.85 -518.94)"/><path d="M134.21,554.42c-2.21-3-4.09-5.59-6.77-7.66a19.89,19.89,0,0,0-3.78-2.29q-6.31-3.79-9.86-6.28a19.82,19.82,0,0,1-4.25-3.55l-0.14-.2-0.24-.07-1.07-.32c-1.71-.5-4.57-1.18-6.23-1.86-0.26-.61-0.31-0.75-0.57-1.33l0.15-.27,0.27-.49-0.25-.49c-0.09-.17-0.24-0.52-0.41-0.92s-0.39-1-.56-1.41c-0.35-.94-0.64-1.75-1.13-3.22-3-3.17-3.73-4.07-8.58-5.07l-0.26-.06-0.26.06A8.18,8.18,0,0,0,86,521.47a17.77,17.77,0,0,0-2.93,5.2,1.21,1.21,0,0,0,.4,1.23A8.05,8.05,0,0,0,78.55,532a9.09,9.09,0,0,0-.32,5.48,3,3,0,0,0-2,.71c-2.06,1.29-1.15,5.13-1,8.25,0,0.47,0,.89,0,1.29a30.17,30.17,0,0,1,7.85-4.64s0-.06,0-0.08c-1.47,0-1.9-1.91-2-4.17,0.9,0.78,2.3-.08,2.79,1.58,0.22,0.76.17,1,.83,0.86l0.34-2.14c-0.21-2.11,3.59-3.47,3.93-5.92a9,9,0,0,0-1.49-2.76,7.63,7.63,0,0,1,1.95,2.78c4.29,5.94,8,2.72,9.49,4.38h0a4.09,4.09,0,0,0-3.62.87,1.28,1.28,0,0,0-.28.77c-0.15.66,0.06,0.41,0.41,0.31,1.14-.33,2.55-1.52,3.87-1.27a2.56,2.56,0,0,1-.22,1.92,5.18,5.18,0,0,1-.58-0.25c-1.19-.57-2.73-0.59-3.42.9h0.45a1,1,0,0,1,.26-0.41,1.71,1.71,0,0,0,0,.42l0.56,0a0.27,0.27,0,0,1-.12-0.23,0.21,0.21,0,1,1,.4,0,0.25,0.25,0,0,1-.14.25L97.37,541a1,1,0,0,0,.06-0.78l0.34,0.09a1.07,1.07,0,0,1-.16.71l0.49,0.05a0.88,0.88,0,0,0,0-.62,1.4,1.4,0,0,1,.5.39,1,1,0,0,1,0,.29,30.94,30.94,0,0,1,4.25.83,4.67,4.67,0,0,0,.66-3.76,39,39,0,0,1,3.44,2.58c2.21,3.12,3.63,3.5,5,3.32,1.53-.16,7.27,6.21,10,10.35a12.94,12.94,0,0,0-1.92-.25c0.31,0.47.61,1,.9,1.44a13.42,13.42,0,0,1,1.38.27,3.14,3.14,0,0,0,1.17,1.36,5.94,5.94,0,0,0,2.69.7c0.23-1.31-.4-0.82-1.88-1.8a2,2,0,0,1-.55-0.53h0c-0.62-3.22-9.6-13.6-11.59-13.39-1.32.18-2.74-.2-5-3.32a10,10,0,0,0-4.64-2.41c-0.75-.23-0.64-0.61-0.46-0.78-0.9-.56-2.54-1-1.91-2-0.26-.19-0.8-1-0.23-1.08l0.48,0.26a33.3,33.3,0,0,0,4.23,1.13c1.27,0.39,2,1,3,1.26l0.83,0.25a23.18,23.18,0,0,0,4.44,3.69q3.62,2.53,10,6.35l0,0,0,0a18.81,18.81,0,0,1,6.11,4.52,56.6,56.6,0,0,1,3.94,5c0.74,1-.29,2.33-1.63,3.44a20.62,20.62,0,0,1-3.17,2.1,17.41,17.41,0,0,1-4.56,1.62q0.17,0.65.32,1.31a18.81,18.81,0,0,0,4.93-1.76c0.83-.44,1.78-1,2.67-1.57C134,558.78,135.9,556.73,134.21,554.42ZM90.58,521.19a17.47,17.47,0,0,1,4.29,1.43A6,6,0,0,1,97,524.33,3.82,3.82,0,0,1,95.9,527v0a14,14,0,0,1-4.68-1.95,13,13,0,0,1-3-2.7A6,6,0,0,1,90.58,521.19Zm-5.38,6.11a14,14,0,0,1,2.15-3.92,14.27,14.27,0,0,0,3.09,2.77,14.92,14.92,0,0,0,4,1.84,7.41,7.41,0,0,1-.87.3,15.37,15.37,0,0,1-4.8.5C87.19,528.67,85.8,528.25,85.2,527.29Zm10.1,6.83c-3.47.08-7.23-3.55-8.5-4.77,2.67,0.54,6.84.55,9.44-1.09a4.87,4.87,0,0,0,1.94-2.21,9,9,0,0,0,.57,2.36c0.25,0.68.56,1.36,0.85,2.05A9.45,9.45,0,0,1,95.3,534.13Z" transform="translate(-37.85 -518.94)"/><path d="M118.88,562.92c-0.7-1.49-1.9-3.24-2-5.5a3.26,3.26,0,0,1,.19-1.36,4.1,4.1,0,0,1,1.67-.49,8.88,8.88,0,0,1,2.11.07c-0.28-.49-0.58-1-0.9-1.44h-0.56c-0.61-2.47-3.42-1.71-5.35-1.72a20.81,20.81,0,0,0-2.16-.12,1.87,1.87,0,0,0-1.35,1.35c-0.1,0-.9.12-1,0.12,0.4-1.26.37-4.15-1.78-5.24,1,3.79-4.48,4-5,.82a2.78,2.78,0,0,0,2.11,1.25c-0.86-1-.58-1.91-0.34-3.12,0.78-4-1.75-4.38-1.76-5.44a0.35,0.35,0,0,1,0-.13,30.94,30.94,0,0,0-4.25-.83,1.46,1.46,0,0,1-.52.72,0.88,0.88,0,0,0,.64-0.19v0c1.6,4-2.21,5.54-3.5,9-1.4,3.73-5.11,2.16-7.39,0a28,28,0,0,1-4-4.12,5.65,5.65,0,0,1-.63-3.44,30.17,30.17,0,0,0-7.85,4.64c0,1.5-.38,2.52-2.35,3.5,1.47,1.14,3.32-.05,3.93-0.92a4.25,4.25,0,0,1-5.94,1.83,28.56,28.56,0,0,0-1.68,2.34c0.89,1.83,2.94,2.31,4.94,2.37a5.78,5.78,0,0,0-3,2.63,14.44,14.44,0,0,0-1,6.08,59.93,59.93,0,0,0,.94,7,2.32,2.32,0,0,0-.47,1.05,3.33,3.33,0,0,0,.43,2,6.9,6.9,0,0,0,.19,1.38c0.29,1.11,1.14,2.73,2.46,2.88H74c0.4,1.84.76,3.28,1.14,4.6s0.82,2.68,1.33,4.16c-0.18,1-.32,2-0.45,3q0.8,0.61,1.64,1.17c0.16-1.34.35-2.7,0.59-4.09l0-.21-0.07-.2c-0.53-1.51-1-2.81-1.37-4.26a9.74,9.74,0,0,1-.15-5,9.63,9.63,0,0,1,7.15-.52l0,0.21H84a10.36,10.36,0,0,1-.31,4.22,16.55,16.55,0,0,0-.28,7.22v0l0,0.05a15.53,15.53,0,0,1,.35,5.7c0.56,0.21,1.13.41,1.7,0.59a18.43,18.43,0,0,0-.36-6.75,15.24,15.24,0,0,1,.29-6.52,12.92,12.92,0,0,0,.4-4.38,7.72,7.72,0,0,1,3,2.75,7.17,7.17,0,0,1,.9,4.25c-0.87,1.07-2.17,3.36-1.33,4.44,0,0.68-1.81,3.36-2.79,6.26A31.18,31.18,0,0,0,94.72,598a30.86,30.86,0,0,0,14.57-3.62,16.27,16.27,0,0,0,0-1.73c0-1.78,2.32-1.86,2.76-4.16a81,81,0,0,0,1-10c3.28-1.54,4.23-4.74,4.17-8v-0.12l0-.12a7.6,7.6,0,0,0-2.69-3.83l-0.26-.21q1.51,0.12,2.41.1c0.89,0,2.62-.4,2.75-1.44a2.34,2.34,0,0,0,0-.66,27.54,27.54,0,0,0,4.67-.58q-0.14-.66-0.32-1.31A26.48,26.48,0,0,1,118.88,562.92ZM81,556.74c0.37-.91-0.69-1.93-0.3-2.32,0.22-.22.17-0.34,0.35-0.34a5,5,0,0,0,1.8.15c0.66-.09.6-0.19,0.64-0.93v-2.24c0-2,.1-2.29.65-1.57a14.76,14.76,0,0,0,5.82,4c1.35,0.62,3.93.1,3.92,0.1a17.69,17.69,0,0,0,2,2.84,1.53,1.53,0,0,0-.25.62,3.14,3.14,0,0,0,1.05,1.57,1.13,1.13,0,0,1,1.15,1,2.58,2.58,0,0,0-1.35-.81c-1.41-.14-2.93.76-2.86,1.14l-0.8.08a11.56,11.56,0,0,0-2.2-1.89,28.48,28.48,0,0,1-4-1.22,28.81,28.81,0,0,1-3.31-1.63,6.22,6.22,0,0,0,.16-1.21,1.47,1.47,0,0,1-1.68.73,21.08,21.08,0,0,0,4.55,2.73,22.65,22.65,0,0,0,3.6,1.19,11.87,11.87,0,0,1,.54,3,18.3,18.3,0,0,1,0,2.51l-0.52-.39h0a8.38,8.38,0,0,0-1.54-.86A37.11,37.11,0,0,1,81,559a15.44,15.44,0,0,1-1.82-1.52C79.22,557.19,79.32,556,81,556.74Zm3.67,20.1a0.77,0.77,0,0,1-.29.17,11.35,11.35,0,0,0-5-.43c-2.2.3-2.65,1.1-4.16,1.31-0.74.1-1-.22-1.31-1.35a8,8,0,0,1-.14-1.37,7.86,7.86,0,0,1,2-.53c-0.06-1-1.2-.56-2.23-0.2a2.16,2.16,0,0,1-.14-0.87h0a1,1,0,0,1,.35-0.53,19.92,19.92,0,0,1,3.35-.8,27.24,27.24,0,0,1,5.63-.41h0a2.15,2.15,0,0,1,1.29.21,1.3,1.3,0,0,1,.25.69,4,4,0,0,0,0,1.4,11.05,11.05,0,0,0,.28,1.35,8.2,8.2,0,0,0-2.19-.59c-1.17-.15-4.85.06-5.43,1.12a13,13,0,0,1,5.34-.45,7,7,0,0,1,2.5.78A0.67,0.67,0,0,1,84.72,576.83ZM90.58,590c0.06-2,1.28-3.09,3.41-3.12,0.2-2.07-2-3.92-2.95-5.82a14,14,0,0,0,6.25-.1,8.37,8.37,0,0,0,1-2,9.71,9.71,0,0,0,.37-1.29c-6.36,1.55-11.09-2.59-11.78-6.29a5,5,0,0,1-.08-0.9,3.89,3.89,0,0,1,.61-2.65,1.33,1.33,0,0,0-.8-0.73c-0.31.47-.79,1.31-1.22,2.11,0-.38.07-0.72,0.11-1a12.93,12.93,0,0,0,.11-2.88c0-.39-1.74-0.19-1.69.08,0.15,0.8.88,3.29,0.26,4.85a19,19,0,0,0-9.45.79c-2.31-2.22-2.78-7.94-1.51-10.64,0.62-1.31,3.27-2.24,5-2.37a7.36,7.36,0,0,0,1.92,2,38.62,38.62,0,0,0,7.72,4.17,7,7,0,0,1,1.27.72h0c0.73,0.51,1.35,1.12,2.1,1.66a21.3,21.3,0,0,0,.38-3.9c0.65,0,1.18,0,1.67,0l0.43,0c0.11,0-.53-1.22-0.1-1.56a3.33,3.33,0,0,0,.77,1.48c0.16,0.24,1,1,1.34.55,1.09-1.37,2.56,0,2.62,0A2.29,2.29,0,0,0,97,563c-4.49,2.19,7.56,5.71,8,8.16h0a30.18,30.18,0,0,1,.57,16.06,19.59,19.59,0,0,0-1.18,5.2C101.06,592.53,97.81,590.59,90.58,590Zm24.32-19.31c0,2.58-.63,5.1-3.39,6.1-2.28.83-3-1.57-3.37-1.71a1.35,1.35,0,0,0-1.24.25,1.15,1.15,0,0,1,.86.32,5,5,0,0,0,3,2.69v0.18c-0.13,2.06-.1,7.08-0.89,10.05-0.51,1.93-2.13,1.62-2.58,3.49a9.43,9.43,0,0,1-2.16.36,17.68,17.68,0,0,1,1.17-5.05,31.49,31.49,0,0,0,0-14.22c2.79-6.21-.62-9.23-6.87-11.13l-1-.31a1.77,1.77,0,0,0,0-1.08,3,3,0,0,0,.47-0.91l0.06-.18a5.57,5.57,0,0,0,1.93.62l0.14-1a4.83,4.83,0,0,1-2.37-1l-0.41-.34a9.91,9.91,0,0,0,10.69-2.9,7.19,7.19,0,0,0,2-.09,12.49,12.49,0,0,0-.54,5q0.05,0.51.15,1l-0.26-.58c-8.07,1.54.48,6,2.66,7.89A5.7,5.7,0,0,1,114.9,570.68Zm-3.75-8a2.38,2.38,0,0,0-.91-0.09,4.47,4.47,0,0,0-1.15.21c-0.11-1,.32-1.33,1.51-1.83A9.35,9.35,0,0,0,111.15,562.71Zm5.43,2c-0.14,0-1.93,0-3-.12l0.07-.08a7.18,7.18,0,0,1-2.2-4.77,11.71,11.71,0,0,1,1-6c0.69,0,1.59-.09,2.46-0.1a5.13,5.13,0,0,0-1,1.73,6,6,0,0,0-.24,3c0.75-.24.26-0.89,0.92-2.79,0.47-1.35,1.9-2.76,3.43-1.7a2.86,2.86,0,0,1-.3.4,1.93,1.93,0,0,0-2.38,1.48,5.26,5.26,0,0,0-.2,1.74,13.06,13.06,0,0,0,2,6.5C117.56,564.72,117.14,564.65,116.57,564.67Z" transform="translate(-37.85 -518.94)"/><path d="M69,550.24a6.68,6.68,0,0,0,.26,4.26,28.56,28.56,0,0,1,1.68-2.34A4.71,4.71,0,0,1,69,550.24Z" transform="translate(-37.85 -518.94)"/><path d="M91.7,545.54a1.3,1.3,0,0,0,.65.12c0.07,0,0-.29,0-0.28a9.7,9.7,0,0,0,1.15.71,1.19,1.19,0,0,0,1-.53,0.42,0.42,0,0,1-.24.4,1,1,0,0,0,.69-0.17,1.17,1.17,0,0,0-.12-1.22,4.42,4.42,0,0,1-.21-2.23c-0.64,1.86.19,2,.06,2.89-1,.65-1.27-0.16-1.9-0.29a2.08,2.08,0,0,0-.91.16,0.76,0.76,0,0,1,.16-0.91,0.75,0.75,0,0,0-.34,1.33h0Z" transform="translate(-37.85 -518.94)"/><path d="M92.27,539.14c0.36,0.21.5,0.51,0.59-.16a1,1,0,0,0,0-.8c-2.21-2.71-5.57-2.19-6.46-1C89.16,535.62,90.67,538.22,92.27,539.14Z" transform="translate(-37.85 -518.94)"/><path d="M88.8,538.57c-1.1.11-2,.17-2.51-0.31a1.2,1.2,0,0,0,1.21,1.15,1.14,1.14,0,0,0,.91,1,1,1,0,0,1-.22-1.11,1.8,1.8,0,0,1,.6-0.19,1.07,1.07,0,0,0,.19,1.35,3.5,3.5,0,0,1,1.45.29,0.93,0.93,0,0,0,.63-1.12,1.51,1.51,0,0,1-.37.59,0.82,0.82,0,0,1-1.07.07,0.81,0.81,0,0,0,1-1,1.16,1.16,0,0,1,1,1.17,0.5,0.5,0,0,1-.46.47L91.62,541l0.44,0a0.34,0.34,0,0,0,0-.15C92.18,538.91,90.5,538.41,88.8,538.57Zm0.8,1a0.26,0.26,0,0,1-.3.19,0.24,0.24,0,0,1-.16-0.31,0.26,0.26,0,0,1,.3-0.19A0.24,0.24,0,0,1,89.6,539.59Z" transform="translate(-37.85 -518.94)"/><path d="M88.25,546.65a1.64,1.64,0,0,0,.69.12c0.36,0.22.63,1.61,1.06,2.2,1.23,1.66,3.64,2.14,4.84.24,0.3-.48.31-1.43,0.83-1.78a0.54,0.54,0,0,0,.53-0.86c-0.32.8-1.29,0.15-1.88,0.16a2.37,2.37,0,0,0-1.06.24,2.19,2.19,0,0,0-1.31-.47,19.7,19.7,0,0,0-2.7-.12h0a0.8,0.8,0,0,1-1-.6,0.43,0.43,0,0,0-.36.36A0.41,0.41,0,0,0,88.25,546.65Zm2.94,0.73a4.14,4.14,0,0,1,1.27.41,1.41,1.41,0,0,0,.66.2h0a3.72,3.72,0,0,0,.52-0.13,2.44,2.44,0,0,1,.73-0.14h0.2a1.93,1.93,0,0,1-.34.63c-1,1.25-2.48.72-3.54-.25a3.76,3.76,0,0,1-.81-1.05A7.87,7.87,0,0,0,91.19,547.38Z" transform="translate(-37.85 -518.94)"/><path d="M95,541.58a1.94,1.94,0,0,0,.7,0,0.47,0.47,0,0,1-.21-0.58,0.91,0.91,0,0,1,0-.13H95.14a3.21,3.21,0,0,0-.16.41C94.93,541.48,94.94,541.52,95,541.58Z" transform="translate(-37.85 -518.94)"/><path d="M100,577.31a7.41,7.41,0,0,1-1,2.33,13.9,13.9,0,0,1-2,2.82l0.36,0.31a7.5,7.5,0,0,0,2.82-2.53l0.25-.48,0.23-.13c2-1.19,3.58-2.21,4.54-4.57l-0.62-2.84C103.64,574.6,102.59,576.32,100,577.31Z" transform="translate(-37.85 -518.94)"/><path d="M96.16,541.59a2.76,2.76,0,0,1,1.44.17,1.32,1.32,0,0,0,.51-0.68L97.62,541a0.63,0.63,0,0,1-.77.31,0.57,0.57,0,0,0,.52-0.33L96.51,541l-0.06,0-0.09,0-0.56,0A0.66,0.66,0,0,0,96.16,541.59Z" transform="translate(-37.85 -518.94)"/><path d="M91.91,541.08a0.16,0.16,0,0,0,.15-0.07l-0.44,0A0.81,0.81,0,0,0,91.91,541.08Z" transform="translate(-37.85 -518.94)"/><polygon points="57.47 11.94 56.97 10.29 56.37 11.91 54.57 11.86 56 12.9 55.39 14.52 56.87 13.55 58.29 14.6 57.78 12.95 59.27 11.99 57.47 11.94"/></svg>